<svg width="17" height="17" viewBox="0 0 17 17" fill="none" xmlns="http://www.w3.org/2000/svg">
<circle cx="8.5" cy="8.5" r="8.5" fill="url(#paint0_linear_12_76)"/>
<path d="M8.37451 10.3975H7.19385C7.19808 9.99121 7.23405 9.65902 7.30176 9.40088C7.3737 9.13851 7.49007 8.89941 7.65088 8.68359C7.81169 8.46777 8.02539 8.22233 8.29199 7.94727C8.48665 7.74837 8.66439 7.56217 8.8252 7.38867C8.99023 7.21094 9.12354 7.02051 9.2251 6.81738C9.32666 6.61003 9.37744 6.36247 9.37744 6.07471C9.37744 5.78271 9.32454 5.53092 9.21875 5.31934C9.11719 5.10775 8.96484 4.94482 8.76172 4.83057C8.56283 4.71631 8.31527 4.65918 8.01904 4.65918C7.7736 4.65918 7.54085 4.70361 7.3208 4.79248C7.10075 4.88135 6.92301 5.01888 6.7876 5.20508C6.65218 5.38704 6.58236 5.62614 6.57812 5.92236H5.40381C5.41227 5.44417 5.53076 5.03369 5.75928 4.69092C5.99202 4.34814 6.30518 4.08577 6.69873 3.90381C7.09229 3.72184 7.53239 3.63086 8.01904 3.63086C8.55648 3.63086 9.01351 3.72819 9.39014 3.92285C9.771 4.11751 10.0609 4.39681 10.2598 4.76074C10.4587 5.12044 10.5581 5.54785 10.5581 6.04297C10.5581 6.42383 10.4798 6.77507 10.3232 7.09668C10.1709 7.41406 9.97412 7.7124 9.73291 7.9917C9.4917 8.271 9.23568 8.5376 8.96484 8.7915C8.7321 9.00732 8.57552 9.25065 8.49512 9.52148C8.41471 9.79232 8.37451 10.0843 8.37451 10.3975ZM7.14307 12.4097C7.14307 12.2192 7.20231 12.0584 7.3208 11.9272C7.43929 11.7961 7.61068 11.7305 7.83496 11.7305C8.06348 11.7305 8.23698 11.7961 8.35547 11.9272C8.47396 12.0584 8.5332 12.2192 8.5332 12.4097C8.5332 12.5916 8.47396 12.7482 8.35547 12.8794C8.23698 13.0106 8.06348 13.0762 7.83496 13.0762C7.61068 13.0762 7.43929 13.0106 7.3208 12.8794C7.20231 12.7482 7.14307 12.5916 7.14307 12.4097Z" fill="white"/>
<defs>
<linearGradient id="paint0_linear_12_76" x1="8.5" y1="0" x2="8.5" y2="17" gradientUnits="userSpaceOnUse">
<stop stop-color="#08B2F6"/>
<stop offset="1" stop-color="#0676EC"/>
</linearGradient>
</defs>
</svg>
