<svg width="32" height="32" viewBox="0 0 32 32" fill="none" xmlns="http://www.w3.org/2000/svg">
<path fill-rule="evenodd" clip-rule="evenodd" d="M23.7913 5.70409L23.3549 4H21.8065L21.3708 5.70384C21.119 5.78483 20.8787 5.8904 20.6527 6.01766L19.2102 5.3123L18.1153 6.38367L18.9434 8.00391L18.9023 8.11988L17.1613 8.54545V10.0606L18.9028 10.4877L18.9434 10.6022L18.1153 12.2224L19.2102 13.2938L20.6527 12.5884C20.8787 12.7157 21.119 12.8212 21.3708 12.9022L21.8065 14.6061H23.3549L23.7913 12.902C23.9781 12.8419 24.1585 12.7682 24.3315 12.6822L25.5446 13.2747L26.6395 12.2034L26.034 11.0163C26.1218 10.847 26.1971 10.6704 26.2585 10.4877L28 10.0606V8.54545L26.2588 8.11912C26.195 7.92923 26.1163 7.74597 26.024 7.57067L26.6395 6.36464L25.5446 5.29326L24.2933 5.90512C24.132 5.82712 23.9644 5.7598 23.7913 5.70409ZM14.0645 12.3334L14.6977 14.1894C15.0645 14.3076 15.4178 14.4548 15.7549 14.6283L17.8027 13.6266L18.8975 14.698L17.9984 16.4581C18.2957 16.8283 18.5546 17.2294 18.7693 17.6556L21.0323 18.394V21.4243L19.3564 21.9715C19.2228 22.6459 18.9877 23.2849 18.6672 23.8725L19.6717 25.8397L18.5768 26.9111L16.8018 26.043C16.1771 26.5205 15.4671 26.896 14.6979 27.144L14.0645 29H10.9677L10.3354 27.1443C9.68524 26.9348 9.07733 26.6342 8.52749 26.2579L7.1907 26.9111L6.09582 25.8397L6.76852 24.5221C6.23879 23.7674 5.86027 22.9031 5.67575 21.9711L4 21.4243V18.394L6.26323 17.655C6.47228 17.2402 6.72316 16.8492 7.0105 16.4873L6.09582 14.698L7.1907 13.6266L9.25819 14.6382C9.60125 14.4603 9.96131 14.3096 10.3354 14.1891L10.9677 12.3334H14.0645ZM12.5161 15.3636C9.52309 15.3636 7.09676 17.7379 7.09676 20.6667C7.09676 23.5955 9.52309 25.9697 12.5161 25.9697C15.5091 25.9697 17.9355 23.5955 17.9355 20.6667C17.9355 17.7379 15.5091 15.3636 12.5161 15.3636ZM15.6128 20.6667C15.6128 18.9931 14.2263 17.6364 12.516 17.6364C10.8057 17.6364 9.41927 18.9931 9.41927 20.6667C9.41927 22.3402 10.8057 23.697 12.516 23.697C14.2263 23.697 15.6128 22.3402 15.6128 20.6667ZM12.5162 19.1515C11.661 19.1515 10.9678 19.8298 10.9678 20.6666C10.9678 21.5034 11.661 22.1818 12.5162 22.1818C13.3713 22.1818 14.0646 21.5034 14.0646 20.6666C14.0646 19.8298 13.3713 19.1515 12.5162 19.1515ZM22.5806 7.03027C21.2979 7.03027 20.2581 8.04781 20.2581 9.303C20.2581 10.5582 21.2979 11.5757 22.5806 11.5757C23.8634 11.5757 24.9032 10.5582 24.9032 9.303C24.9032 8.04781 23.8634 7.03027 22.5806 7.03027ZM23.355 9.30299C23.355 8.88459 23.0083 8.54541 22.5808 8.54541C22.1532 8.54541 21.8066 8.88459 21.8066 9.30299C21.8066 9.72138 22.1532 10.0606 22.5808 10.0606C23.0083 10.0606 23.355 9.72138 23.355 9.30299Z" fill="url(#paint0_linear_4:3112)"/>
<defs>
<linearGradient id="paint0_linear_4:3112" x1="28" y1="15.6319" x2="4" y2="15.6319" gradientUnits="userSpaceOnUse">
<stop stop-color="#1A78E2"/>
<stop offset="0.483716" stop-color="#0F63D6"/>
<stop offset="1" stop-color="#0049C7"/>
</linearGradient>
</defs>
</svg>
