<svg width="32" height="32" viewBox="0 0 32 32" fill="none" xmlns="http://www.w3.org/2000/svg">
<path fill-rule="evenodd" clip-rule="evenodd" d="M21.88 12.2401L21.88 12.2401L19.4946 5H12.5037L10.1182 12.2401C10.0773 12.3642 10.0495 12.4922 10.0353 12.6221C9.66144 16.0259 12.3268 19 15.751 19H16.2472C19.6715 19 22.3368 16.0259 21.963 12.6221C21.9487 12.4922 21.9209 12.3642 21.88 12.2401ZM8.04722 12.4038C7.57066 16.743 10.7587 20.5641 15.0107 20.9653V24.3497L10.3526 26.7316C9.23035 27.3054 9.63849 29 10.8989 29H20.6512C21.8944 29 22.3173 27.3418 21.2258 26.7465L16.9876 24.4348V20.9653C21.2396 20.5641 24.4276 16.743 23.9511 12.4038C23.9216 12.1353 23.8641 11.8707 23.7796 11.6142L21.1677 3.68707C21.0326 3.27704 20.6497 3 20.218 3H11.7803C11.3486 3 10.9656 3.27704 10.8305 3.68707L8.21869 11.6142C8.13417 11.8707 8.07671 12.1353 8.04722 12.4038ZM17.5138 27H14.2206L15.9203 26.1309L17.5138 27Z" fill="url(#paint0_linear_727:48293)"/>
<path fill-rule="evenodd" clip-rule="evenodd" d="M9.08594 13.8656C9.58205 13.5788 10.5295 13.1576 11.5608 13.0229C12.5823 12.8894 13.567 13.0468 14.3417 13.7435C16.6579 15.8265 18.37 16.5 19.829 16.4999C20.5375 16.4999 21.1166 16.3385 21.5525 16.2078L21.6189 16.1879C22.0568 16.0565 22.2454 15.9999 22.4237 15.9999L22.4237 13.9999C21.9301 13.9999 21.4455 14.1488 21.0994 14.2551C21.0568 14.2682 21.0164 14.2806 20.9782 14.292C20.5801 14.4114 20.2325 14.4999 19.829 14.4999C19.3274 14.5 18.6158 14.3596 17.5842 13.7223C18.5654 13.36 19.3894 13.147 20.0812 13.0833C21.0896 12.9906 21.7281 13.2189 22.2067 13.7031L23.6291 12.2971C22.6251 11.2813 21.3361 10.9595 19.8981 11.0918C18.6721 11.2045 17.2813 11.6492 15.7357 12.3071C15.7169 12.2903 15.698 12.2734 15.679 12.2564C14.3228 11.0367 12.6716 10.8607 11.3017 11.0397C9.94156 11.2174 8.74204 11.7543 8.08496 12.1342L9.08594 13.8656Z" fill="url(#paint1_linear_727:48293)"/>
<defs>
<linearGradient id="paint0_linear_727:48293" x1="23.9983" y1="15.0972" x2="8" y2="15.0972" gradientUnits="userSpaceOnUse">
<stop stop-color="#1A78E2"/>
<stop offset="0.483716" stop-color="#0F63D6"/>
<stop offset="1" stop-color="#0049C7"/>
</linearGradient>
<linearGradient id="paint1_linear_727:48293" x1="23.6291" y1="13.5485" x2="8.08496" y2="13.5485" gradientUnits="userSpaceOnUse">
<stop stop-color="#1A78E2"/>
<stop offset="0.483716" stop-color="#0F63D6"/>
<stop offset="1" stop-color="#0049C7"/>
</linearGradient>
</defs>
</svg>
