<svg width="32" height="32" viewBox="0 0 32 32" fill="none" xmlns="http://www.w3.org/2000/svg">
<rect x="4.57129" y="16.7619" width="5.33333" height="9.14286" fill="white"/>
<path fill-rule="evenodd" clip-rule="evenodd" d="M27.9958 7.43946C27.9384 6.63457 27.2888 6 26.496 6H22.7374L22.6231 6.00443C21.8685 6.06317 21.2654 6.69885 21.2347 7.49338L20.5417 25.4444L20.5458 25.5605C20.6032 26.3654 21.2528 27 22.0456 27H25.8042C26.6114 27 27.2747 26.3409 27.3069 25.5066L27.9999 7.55556L27.9958 7.43946ZM19.7143 12.1061C19.6569 11.3012 19.0073 10.6666 18.2145 10.6666H14.4568L14.3435 10.671C13.5955 10.7287 12.995 11.3536 12.9549 12.1404L12.2804 25.4141L12.2842 25.5605C12.3416 26.3654 12.9911 27 13.784 27H17.5417C18.3416 27 19.0015 26.3524 19.0435 25.5262L19.7181 12.2525L19.7143 12.1061ZM9.57572 16.1111C10.3686 16.1111 11.0181 16.7457 11.0755 17.5506L11.0796 17.6667L10.765 25.5092C10.7315 26.3424 10.0686 27 9.2624 27H5.50392C4.71108 27 4.06154 26.3655 4.00413 25.5606L4 25.4445L4.31462 17.6019C4.34818 16.7687 5.011 16.1111 5.81723 16.1111H9.57572ZM22.7375 7.55554H26.4961L25.8043 25.4444H22.0457L22.7375 7.55554ZM18.2147 12.2222H14.457L13.7842 25.4444H17.5419L18.2147 12.2222ZM5.56569 23.8889H9.32473L9.26252 25.4444H5.50403L5.56569 23.8889ZM9.4503 20.7778H5.69126L5.62884 22.3333H9.38788L9.4503 20.7778ZM5.8173 17.6667H9.57578L9.51267 19.2222H5.75438L5.8173 17.6667Z" fill="url(#paint0_linear_4:3105)"/>
<defs>
<linearGradient id="paint0_linear_4:3105" x1="28" y1="15.7708" x2="4" y2="15.7708" gradientUnits="userSpaceOnUse">
<stop stop-color="#1A78E2"/>
<stop offset="0.483716" stop-color="#0F63D6"/>
<stop offset="1" stop-color="#0049C7"/>
</linearGradient>
</defs>
</svg>
