<svg width="32" height="32" viewBox="0 0 32 32" fill="none" xmlns="http://www.w3.org/2000/svg">
<path fill-rule="evenodd" clip-rule="evenodd" d="M27.2503 7.03029C27.6644 7.03029 28 7.35798 28 7.76219L27.2762 28.2685C27.2618 28.6765 26.9188 29 26.5007 29H7.85069C7.42213 29 7.07471 28.6608 7.07471 28.2424C7.07471 27.824 7.42213 27.4848 7.85069 27.4848H24.9506C25.368 27.4848 25.7106 27.1625 25.726 26.7553L26.4467 7.75983C26.4621 7.35262 26.8047 7.03029 27.2221 7.03029H27.2503ZM23.3411 4C24.1593 4 24.8296 4.61809 24.8888 5.40207L24.8931 5.51515L24.1735 24.5106C24.1426 25.325 23.4574 25.9697 22.6226 25.9697H5.55197C4.7338 25.9697 4.0635 25.3516 4.00426 24.5676L4 24.4545L4.71957 5.45907C4.74899 4.68344 5.37192 4.06178 6.1523 4.00433L6.27048 4H23.3411ZM23.3411 5.51515H6.27051L5.552 24.4545H22.6226L23.3411 5.51515ZM10.1788 20.6667C10.6074 20.6667 10.9548 21.0058 10.9548 21.4242C10.9548 21.8426 10.6074 22.1818 10.1788 22.1818C9.75025 22.1818 9.40283 21.8426 9.40283 21.4242C9.40283 21.0058 9.75025 20.6667 10.1788 20.6667ZM16.3865 20.6667C16.8151 20.6667 17.1625 21.0058 17.1625 21.4242C17.1625 21.8426 16.8151 22.1818 16.3865 22.1818H13.2826C12.854 22.1818 12.5066 21.8426 12.5066 21.4242C12.5066 21.0058 12.854 20.6667 13.2826 20.6667H16.3865ZM10.1788 18.3939C10.6074 18.3939 10.9548 18.7331 10.9548 19.1515C10.9548 19.5699 10.6074 19.9091 10.1788 19.9091C9.75025 19.9091 9.40283 19.5699 9.40283 19.1515C9.40283 18.7331 9.75025 18.3939 10.1788 18.3939ZM17.9385 18.3939C18.3671 18.3939 18.7145 18.7331 18.7145 19.1515C18.7145 19.5699 18.3671 19.9091 17.9385 19.9091H13.2826C12.854 19.9091 12.5066 19.5699 12.5066 19.1515C12.5066 18.7331 12.854 18.3939 13.2826 18.3939H17.9385Z" fill="url(#paint0_linear_4:3109)"/>
<path fill-rule="evenodd" clip-rule="evenodd" d="M17.2452 11.9702C17.679 11.449 17.939 10.7844 17.939 10.0606C17.939 8.38699 16.5493 7.03027 14.835 7.03027C13.1208 7.03027 11.7311 8.38699 11.7311 10.0606C11.7311 10.7845 11.9911 11.449 12.4249 11.9702C11.9416 12.1351 11.472 12.3515 11.0169 12.6192C10.2827 13.051 10.0462 13.9822 10.4885 14.6989C10.5743 14.838 10.6825 14.9627 10.8088 15.0682C12.5479 16.5209 13.8402 17.2575 14.8351 17.2575C15.8299 17.2575 17.1222 16.5209 18.8613 15.0682C19.5126 14.5242 19.5888 13.5678 19.0315 12.9319C18.9234 12.8086 18.7957 12.703 18.6532 12.6192C18.1982 12.3515 17.7286 12.1351 17.2452 11.9702ZM14.8255 13.0909C14.8287 13.0909 14.8319 13.0909 14.835 13.0909C14.8382 13.0909 14.8413 13.0909 14.8445 13.0909C15.8353 13.0924 16.7615 13.3256 17.6343 13.7944L17.8521 13.917C16.3871 15.1408 15.3316 15.7424 14.8349 15.7424C14.3597 15.7424 13.3734 15.1919 12.0064 14.0731L11.8176 13.917C12.7539 13.3662 13.7517 13.0925 14.8255 13.0909ZM14.8407 11.5757C15.6953 11.5727 16.387 10.8955 16.387 10.0606C16.387 9.22379 15.6922 8.54544 14.8351 8.54544C13.9779 8.54544 13.2831 9.22379 13.2831 10.0606C13.2831 10.8955 13.9749 11.5727 14.8294 11.5757C14.8313 11.5757 14.8332 11.5757 14.8351 11.5757C14.837 11.5757 14.8389 11.5757 14.8407 11.5757Z" fill="url(#paint1_linear_4:3109)"/>
<defs>
<linearGradient id="paint0_linear_4:3109" x1="28" y1="15.6319" x2="4" y2="15.6319" gradientUnits="userSpaceOnUse">
<stop stop-color="#1A78E2"/>
<stop offset="0.483716" stop-color="#0F63D6"/>
<stop offset="1" stop-color="#0049C7"/>
</linearGradient>
<linearGradient id="paint1_linear_4:3109" x1="19.4043" y1="11.7888" x2="10.2656" y2="11.7888" gradientUnits="userSpaceOnUse">
<stop stop-color="#1A78E2"/>
<stop offset="0.483716" stop-color="#0F63D6"/>
<stop offset="1" stop-color="#0049C7"/>
</linearGradient>
</defs>
</svg>
