<svg width="32" height="32" viewBox="0 0 32 32" fill="none" xmlns="http://www.w3.org/2000/svg">
<path fill-rule="evenodd" clip-rule="evenodd" d="M15.1318 5.07141L14.3955 4L13.8143 5.16293L13.6905 5.40421C11.8268 8.94274 8.70882 10.7532 4.22896 10.8694C4.07103 10.8731 3.91693 10.8749 3.76667 10.8749H3L3.00208 12.0415C3.09769 21.1862 6.4919 27.1886 13.1787 29.8885C13.4799 30.0101 13.8106 30.0325 14.1234 29.9545L14.2562 29.9149L14.5665 29.8044C20.5913 27.6089 24.247 23.3168 25.5053 17.0112L25.5149 17.0109L25.5433 16.8161C25.8476 15.2185 26 13.4933 26 11.6419V10.8749H25.2333L24.9498 10.8718C20.9967 10.7848 17.7429 8.87111 15.1318 5.07141ZM11.241 27.1706C11.8167 26.271 12.8238 25.8313 13.7331 25.8313C14.7021 25.8313 15.7819 26.3305 16.3337 27.3541C15.6232 27.7279 14.8658 28.0617 14.0616 28.3557L13.7523 28.466L13.4745 28.3508C12.6766 28.0114 11.9321 27.6186 11.241 27.1706ZM14.5878 6.92385C13.251 9.08738 11.4265 10.6144 9.13407 11.4987L9.1333 12.4089C9.1333 14.7989 7.31216 16.7634 4.98242 16.9892C5.72669 21.0377 7.39885 24.1205 9.9997 26.2649C10.8832 24.9302 12.3633 24.2973 13.7333 24.2973C15.2063 24.2973 16.8067 25.029 17.6569 26.5756C20.9487 24.4207 23.0422 21.2334 23.9479 16.982C21.7105 16.7308 19.9585 14.8739 19.8701 12.5901L19.8666 12.4089L19.8666 11.2667C17.8971 10.3573 16.135 8.90698 14.5878 6.92385ZM14.9813 22.3798C16.593 22.3743 19.4836 22.031 19.4836 18.5449C19.1403 14.0803 15.108 15.5471 14.2692 15.9023L14.1169 15.9701L13.8704 15.8634L13.6334 15.7728C12.3726 15.317 9.05996 14.5168 8.75024 18.5449C8.75024 22.185 11.9019 22.3985 13.4583 22.3788L14.0634 22.3645L14.8862 22.3797L14.9813 22.3798ZM15.3408 17.1411C15.2351 17.1746 15.1349 17.2096 15.042 17.2448L14.9082 17.2977L14.8 17.344L14.117 17.6739L13.4495 17.351C13.357 17.3063 13.1507 17.2217 12.8745 17.1353C12.4267 16.9951 11.9837 16.9156 11.6017 16.9217C10.8124 16.9342 10.429 17.2444 10.2994 18.4414L10.2839 18.6026L10.2883 18.7621C10.3413 19.9547 10.8478 20.4597 11.8836 20.706C12.2432 20.7915 12.602 20.8319 13.0344 20.8425C13.193 20.3969 13.6179 20.0788 14.117 20.0788C14.616 20.0788 15.0409 20.3969 15.2 20.8414C15.6319 20.8319 15.9907 20.7915 16.3504 20.706C17.4311 20.4489 17.9357 19.9103 17.95 18.6026C17.8408 17.3122 17.4782 16.967 16.7265 16.925C16.3211 16.9024 15.8344 16.9848 15.3408 17.1411ZM4.89444 12.3801C5.71575 12.34 6.61736 12.2584 7.59983 12.1353V12.4089C7.59983 14.0074 6.37783 15.3204 4.81741 15.4639C4.68854 14.4656 4.60359 13.5572 4.56236 12.7396L4.54736 12.3947L4.89444 12.3801ZM21.3999 12.1353V12.4089C21.3999 14.0074 22.6219 15.3204 24.1823 15.4639C24.2928 14.6082 24.371 13.8186 24.417 13.0955L24.4374 12.7396L24.4524 12.3947L24.1053 12.3801C23.284 12.34 22.3824 12.2584 21.3999 12.1353ZM15.436 12.9617C15.436 12.6564 15.1886 12.4089 14.8835 12.4089H14.6694C14.3394 12.4089 14.0464 12.6202 13.942 12.9334L13.5926 13.9823C13.5738 14.0386 13.5642 14.0977 13.5642 14.1571C13.5642 14.4624 13.8116 14.7099 14.1168 14.7099H14.3309C14.6609 14.7099 14.9538 14.4987 15.0582 14.1855L15.4077 13.1366C15.4265 13.0802 15.436 13.0212 15.436 12.9617Z" fill="url(#paint0_linear_4:3104)"/>
<defs>
<linearGradient id="paint0_linear_4:3104" x1="26" y1="16.0972" x2="3" y2="16.0972" gradientUnits="userSpaceOnUse">
<stop stop-color="#1A78E2"/>
<stop offset="0.483716" stop-color="#0F63D6"/>
<stop offset="1" stop-color="#0049C7"/>
</linearGradient>
</defs>
</svg>
