<svg width="32" height="32" viewBox="0 0 32 32" fill="none" xmlns="http://www.w3.org/2000/svg">
<rect opacity="0.01" x="23.6191" y="12.9524" width="4.57143" height="1.52381" fill="white"/>
<path fill-rule="evenodd" clip-rule="evenodd" d="M10.8787 18.6893L11.5 19.3107V23.5C11.5 24.8979 10.5439 26.0725 9.25 26.4055H7.75C6.45608 26.0725 5.5 24.8979 5.5 23.5V19.3107L6.56066 18.25H9.81802C10.2158 18.25 10.5974 18.408 10.8787 18.6893ZM6.79053 16.75L6.54053 16H10.4594L10.2094 16.75H6.79053ZM7.74999 14.5V9.82294L7.03589 8.39475L7.61484 5.49999H9.38513L9.96408 8.39475L9.24999 9.82294V14.5H7.74999ZM5.02566 16.1987L5.39191 17.2974L4.21967 18.4697C4.07902 18.6103 4 18.8011 4 19V23.5C4 25.9853 6.01472 28 8.5 28C10.9853 28 13 25.9853 13 23.5V19C13 18.8011 12.921 18.6103 12.7803 18.4697L11.6081 17.2974L11.9743 16.1987C12.1997 15.5225 11.8343 14.7916 11.1581 14.5662C11.0704 14.537 10.9799 14.5173 10.8882 14.5074L10.75 14.5V10.1771L11.3057 9.06557C11.4549 8.76723 11.5004 8.42767 11.435 8.10058L10.856 5.20583C10.7158 4.50469 10.1002 4 9.38515 4H7.61485C6.89983 4 6.28421 4.50469 6.14398 5.20583L5.56503 8.10058C5.49961 8.42767 5.54509 8.76723 5.69426 9.06557L6.25 10.1771V14.5C5.53724 14.5 4.95943 15.0778 4.95943 15.7906C4.95943 15.9293 4.98179 16.0671 5.02566 16.1987ZM26.5 10.6973C26.5 13.1067 24.8629 15.19 22.5631 15.7819C22.2316 15.8672 22 16.1661 22 16.5083V25.6973C22 26.1115 21.6642 26.4473 21.25 26.4473C20.8358 26.4473 20.5 26.1115 20.5 25.6973V16.5083C20.5 16.1946 20.3054 15.9173 20.0176 15.8076L19.9369 15.7819C17.6371 15.19 16 13.1067 16 10.6973C16 8.90673 16.9047 7.28551 18.3333 6.33044V10.5723C18.3333 10.807 18.4432 11.0282 18.6303 11.17L20.3258 12.4552C20.8571 12.8579 21.5905 12.8616 22.1259 12.4643L23.8636 11.1746C24.0543 11.0331 24.1667 10.8097 24.1667 10.5723V6.33044C25.5953 7.28551 26.5 8.90673 26.5 10.6973ZM28 10.6973C28 7.88616 26.2655 5.39972 23.6876 4.40106C23.3013 4.25143 22.8669 4.44325 22.7173 4.82949C22.6838 4.9159 22.6667 5.00776 22.6667 5.10042V10.1949L21.6836 10.9245C21.416 11.1232 21.0493 11.1213 20.7836 10.92L19.8333 10.1997V5.10042C19.8333 4.6862 19.4975 4.35042 19.0833 4.35042C19.0216 4.35042 18.9601 4.35805 18.9005 4.37305L18.8124 4.40106C16.2345 5.39972 14.5 7.88616 14.5 10.6973C14.5 13.5948 16.3409 16.1249 19 17.0632V25.6973C19 26.9399 20.0074 27.9473 21.25 27.9473C22.4926 27.9473 23.5 26.9399 23.5 25.6973V17.0632C26.1591 16.1249 28 13.5948 28 10.6973Z" fill="url(#paint0_linear_4:3097)"/>
<defs>
<linearGradient id="paint0_linear_4:3097" x1="28" y1="15.1667" x2="4" y2="15.1667" gradientUnits="userSpaceOnUse">
<stop stop-color="#1A78E2"/>
<stop offset="0.483716" stop-color="#0F63D6"/>
<stop offset="1" stop-color="#0049C7"/>
</linearGradient>
</defs>
</svg>
