<svg width="32" height="32" viewBox="0 0 32 32" fill="none" xmlns="http://www.w3.org/2000/svg">
<path fill-rule="evenodd" clip-rule="evenodd" d="M20.5143 5C25.1978 5 29 8.71131 29 13.2964C29 16.2838 26.438 20.206 21.3549 25.1879L20.5143 26.0043L20.2701 25.7672C20.4023 25.3459 20.4838 24.9024 20.5072 24.4437L20.5143 24.1667V23.857L21.071 23.2997C25.3399 18.9748 27.4572 15.6056 27.4572 13.2964C27.4572 9.5644 24.3518 6.53333 20.5143 6.53333C16.6768 6.53333 13.5715 9.5644 13.5715 13.2964C13.5715 14.2098 13.9027 15.289 14.5673 16.5276C14.4337 16.5155 14.2986 16.5073 14.1623 16.5031L13.9572 16.5L12.8347 16.5002C12.2978 15.3312 12.0286 14.2647 12.0286 13.2964C12.0286 8.71131 15.8309 5 20.5143 5ZM18.9714 23.0167C18.9714 20.2645 16.7265 18.0333 13.9571 18.0333H7.01429C4.24497 18.0333 2 20.2645 2 23.0167V24.1667C2 26.2838 3.7269 28 5.85714 28H15.1143C17.2445 28 18.9714 26.2838 18.9714 24.1667V23.0167ZM7.0144 19.5667H8.42843L7.64406 21.906C7.62516 21.9624 7.61553 22.0214 7.61553 22.0808C7.61553 22.3859 7.86446 22.6333 8.17154 22.6333H8.38695C8.719 22.6333 9.01379 22.4222 9.1188 22.1091L9.97051 19.5667H11.5141L10.7298 21.906C10.7109 21.9624 10.7012 22.0214 10.7012 22.0808C10.7012 22.3859 10.9502 22.6333 11.2573 22.6333H11.4727C11.8047 22.6333 12.0995 22.4222 12.2045 22.1091L13.0562 19.5667H13.9573C15.8745 19.5667 17.4287 21.1113 17.4287 23.0167V24.1667C17.4287 25.4369 16.3925 26.4667 15.1144 26.4667H5.85725C4.57911 26.4667 3.54297 25.4369 3.54297 24.1667V23.0167C3.54297 21.1113 5.09718 19.5667 7.0144 19.5667ZM24.3713 13.4333C24.3713 11.3162 22.6444 9.59998 20.5141 9.59998C18.3839 9.59998 16.657 11.3162 16.657 13.4333C16.657 15.5504 18.3839 17.2666 20.5141 17.2666C22.6444 17.2666 24.3713 15.5504 24.3713 13.4333ZM10.9387 10.3659C10.7811 10.8614 10.6624 11.3738 10.5861 11.8997C8.7123 11.8999 7.15141 13.3273 6.99575 15.1831L6.88518 16.5012C6.34653 16.5116 5.82379 16.5865 5.32446 16.7184L5.50345 14.584C5.70336 12.2001 7.70835 10.3664 10.1153 10.366L10.9387 10.3659ZM18.2 13.4333C18.2 12.1631 19.2361 11.1333 20.5142 11.1333C21.7924 11.1333 22.8285 12.1631 22.8285 13.4333C22.8285 14.7036 21.7924 15.7333 20.5142 15.7333C19.2361 15.7333 18.2 14.7036 18.2 13.4333Z" fill="url(#paint0_linear_4:3113)"/>
<defs>
<linearGradient id="paint0_linear_4:3113" x1="29" y1="15.7014" x2="2" y2="15.7014" gradientUnits="userSpaceOnUse">
<stop stop-color="#1A78E2"/>
<stop offset="0.483716" stop-color="#0F63D6"/>
<stop offset="1" stop-color="#0049C7"/>
</linearGradient>
</defs>
</svg>
