<svg width="32" height="32" viewBox="0 0 32 32" fill="none" xmlns="http://www.w3.org/2000/svg">
<ellipse cx="18.6704" cy="20.0112" rx="4.66456" ry="4.5028" fill="white"/>
<path fill-rule="evenodd" clip-rule="evenodd" d="M21.0032 2L28 8.75421L26.5686 24.644C26.4988 25.4197 25.8261 26.015 25.0196 26.015H22.1394L21.8771 29.3071C21.8441 29.7203 21.4704 30.0295 21.0423 29.9978C20.922 29.9888 20.8054 29.953 20.7019 29.893L17.8935 28.2664L15.2969 29.7703C14.9287 29.9835 14.4512 29.8683 14.2303 29.5129C14.1473 29.3794 14.1094 29.2244 14.1218 29.0692L14.3651 26.015H5.55485C4.69613 26.015 4 25.343 4 24.514L4.00076 24.4672L5.36352 3.40731C5.41474 2.61626 6.09429 2 6.91535 2H21.0032ZM16.036 24.6086L15.7874 27.7357L17.8934 26.516L20.4232 27.9812L20.6688 24.8991L20.7107 24.8817C20.0859 25.128 19.3949 25.2645 18.6708 25.2645C17.7982 25.2645 16.9735 25.0662 16.2425 24.7138L16.036 24.6086ZM20.2187 3.50093H6.91543L5.55493 24.514H14.4837L14.5684 23.4628L14.5746 23.4697C13.7367 22.5457 13.229 21.3357 13.229 20.0112C13.229 17.1099 15.6654 14.7579 18.671 14.7579C21.6765 14.7579 24.1129 17.1099 24.1129 20.0112C24.1129 21.4926 23.4778 22.8307 22.456 23.7857L22.3067 23.9201L22.2591 24.514H25.0197L26.3037 10.2551H21.1065C21.0742 10.2551 21.042 10.2542 21.0099 10.2522L20.9136 10.2435C20.1003 10.1454 19.5126 9.45743 19.5535 8.67969L19.5636 8.56803L20.2187 3.50093ZM18.6708 16.2589C16.524 16.2589 14.7837 17.9389 14.7837 20.0112C14.7837 22.0836 16.524 23.7636 18.6708 23.7636C20.8176 23.7636 22.558 22.0836 22.558 20.0112C22.558 17.9389 20.8176 16.2589 18.6708 16.2589ZM13.2289 11.0056C13.6583 11.0056 14.0064 11.3416 14.0064 11.7561C14.0064 12.1706 13.6583 12.5066 13.2289 12.5066H10.1192C9.68986 12.5066 9.3418 12.1706 9.3418 11.7561C9.3418 11.3416 9.68986 11.0056 10.1192 11.0056H13.2289ZM15.5612 8.00372C15.9906 8.00372 16.3386 8.33971 16.3386 8.75418C16.3386 9.16865 15.9906 9.50465 15.5612 9.50465H10.1192C9.68986 9.50465 9.3418 9.16865 9.3418 8.75418C9.3418 8.33971 9.68986 8.00372 10.1192 8.00372H15.5612ZM21.6274 4.72573L21.1064 8.75424H25.8006L21.6274 4.72573Z" fill="url(#paint0_linear_4:3115)"/>
<defs>
<linearGradient id="paint0_linear_4:3115" x1="28" y1="15.0278" x2="4" y2="15.0278" gradientUnits="userSpaceOnUse">
<stop stop-color="#1A78E2"/>
<stop offset="0.483716" stop-color="#0F63D6"/>
<stop offset="1" stop-color="#0049C7"/>
</linearGradient>
</defs>
</svg>
