<svg width="32" height="32" viewBox="0 0 32 32" fill="none" xmlns="http://www.w3.org/2000/svg">
<path fill-rule="evenodd" clip-rule="evenodd" d="M16.7094 3.17656C16.9865 3.3231 17.2127 3.55196 17.3575 3.83239L18.5213 6.0861L21.0486 6.43706C21.8866 6.55344 22.4727 7.33525 22.3577 8.18328C22.3093 8.54017 22.1396 8.86884 21.8777 9.11283L20.1064 10.763L20.5321 13.1353C20.6833 13.9775 20.1311 14.7842 19.2988 14.9372C18.9743 14.9968 18.6394 14.9488 18.344 14.8004L16 13.6227L13.6561 14.8004C12.8985 15.1811 11.9793 14.8681 11.6031 14.1015C11.4564 13.8025 11.409 13.4637 11.468 13.1353L11.8937 10.763L10.1224 9.11283C9.50003 8.53307 9.45998 7.55258 10.0329 6.92282C10.274 6.6578 10.5988 6.48604 10.9515 6.43706L13.4787 6.0861L14.6426 3.83239C15.0343 3.07375 15.9597 2.78012 16.7094 3.17656ZM9.32289 16.9956L4.68037 14.2833L2 18.9811L6.64253 21.6934L9.32289 16.9956ZM27.3198 14.2833L30.0001 18.9811L25.3576 21.6934L22.6772 16.9956L27.3198 14.2833ZM16.7658 16.826V30H15.2341V16.826H16.7658ZM22.6241 19.9748L23.1605 21.4266C21.1724 22.1788 20.6871 23.0994 20.6078 26.3983L20.6028 26.638L20.5967 27.1306L20.5949 27.6752H19.0632L19.0638 27.3743C19.0836 22.66 19.6476 21.101 22.6241 19.9748ZM13.2057 27.6752C13.2057 22.7273 12.6781 21.1259 9.64546 19.9751L9.10767 21.4263C11.1932 22.2177 11.6256 23.1978 11.6699 26.9268L11.674 27.6752H13.2057ZM26.7592 16.4005L24.7695 17.5629L25.9183 19.5762L27.9079 18.4138L26.7592 16.4005ZM4.09229 18.4138L5.24101 16.4005L7.23067 17.5629L6.08194 19.5762L4.09229 18.4138ZM14.47 7.51283L16 4.55019L17.5299 7.51283L20.8403 7.97255L18.4487 10.2005L19.025 13.4122L16 11.8923L12.9749 13.4122L13.5513 10.2005L11.1597 7.97255L14.47 7.51283Z" fill="url(#paint0_linear_4:3100)"/>
<defs>
<linearGradient id="paint0_linear_4:3100" x1="30.0001" y1="15.5625" x2="2" y2="15.5625" gradientUnits="userSpaceOnUse">
<stop stop-color="#1A78E2"/>
<stop offset="0.483716" stop-color="#0F63D6"/>
<stop offset="1" stop-color="#0049C7"/>
</linearGradient>
</defs>
</svg>
