<svg width="32" height="32" viewBox="0 0 32 32" fill="none" xmlns="http://www.w3.org/2000/svg">
<path opacity="0.01" fill-rule="evenodd" clip-rule="evenodd" d="M6.04887 11.726C6.14141 10.6949 7.00557 9.90479 8.04087 9.90479H23.7171C24.8922 9.90479 25.8141 10.9131 25.7091 12.0836L24.427 26.3693C24.3345 27.4004 23.4703 28.1905 22.435 28.1905H6.75881C5.58367 28.1905 4.66178 27.1822 4.76682 26.0117L6.04887 11.726Z" fill="url(#paint0_linear_4:3120)"/>
<path fill-rule="evenodd" clip-rule="evenodd" d="M2.14205 14.8268C2.38456 15.1714 2.85338 15.249 3.18917 15.0001L15.7572 5.68507C16.0321 5.48131 16.4061 5.49222 16.6693 5.71167L27.777 14.9735C28.0985 15.2416 28.5709 15.1914 28.8321 14.8615C29.0933 14.5316 29.0444 14.0469 28.7229 13.7788L17.6151 4.51696C16.8256 3.85859 15.7037 3.82587 14.879 4.43715L2.31094 13.7522C1.97514 14.0011 1.89953 14.4822 2.14205 14.8268ZM11.8752 27.4606L12.4429 20.4696C12.4753 20.0707 12.8002 19.7639 13.1903 19.7639H16.9351C17.3493 19.7639 17.6851 20.1085 17.6851 20.5336C17.6851 20.5549 17.6842 20.5762 17.6825 20.5975L17.1252 27.4606H23.1073C23.4494 27.4606 23.7502 27.1283 23.7524 26.6319L24.5024 16.6261C24.5342 16.2023 24.8947 15.8852 25.3077 15.9178C25.7207 15.9504 26.0297 16.3204 25.998 16.7442L25.2502 26.691C25.2502 27.954 24.3037 29 23.1073 29H6.39309C5.1967 29 4.25024 27.954 4.25245 26.6319L5.00244 16.6261C5.03422 16.2023 5.39477 15.8852 5.80776 15.9178C6.22075 15.9504 6.52979 16.3204 6.49802 16.7442L5.75024 26.691C5.75024 27.1283 6.05098 27.4606 6.39309 27.4606H11.8752ZM13.3801 27.4606H15.6197L16.1197 21.3032H13.8801L13.3801 27.4606Z" fill="url(#paint1_linear_4:3120)"/>
<defs>
<linearGradient id="paint0_linear_4:3120" x1="12.3105" y1="-1.36451" x2="-9.94498" y2="25.3091" gradientUnits="userSpaceOnUse">
<stop offset="0.000237542" stop-color="#FF0000"/>
<stop offset="0.506044" stop-color="#FF144C" stop-opacity="0.143247"/>
<stop offset="1" stop-color="#FF00AC" stop-opacity="0.114265"/>
</linearGradient>
<linearGradient id="paint1_linear_4:3120" x1="29" y1="15.6319" x2="2" y2="15.6319" gradientUnits="userSpaceOnUse">
<stop stop-color="#1A78E2"/>
<stop offset="0.483716" stop-color="#0F63D6"/>
<stop offset="1" stop-color="#0049C7"/>
</linearGradient>
</defs>
</svg>
