<svg width="32" height="32" viewBox="0 0 32 32" fill="none" xmlns="http://www.w3.org/2000/svg">
<path fill-rule="evenodd" clip-rule="evenodd" d="M11.7912 6.24702L9.93183 6.72033C9.48869 6.83313 9.17851 7.23215 9.17851 7.68942V9.80474C9.17851 10.5339 9.01905 11.2542 8.7113 11.9151L7.78306 13.9088C7.59226 14.3187 7.70011 14.8055 8.04614 15.0964L9.62421 16.423C10.1546 16.8689 10.5866 17.4202 10.8927 18.0419L11.8845 20.0565C12.084 20.4618 12.5304 20.683 12.9737 20.5962L15.0395 20.1919C15.6737 20.0678 16.326 20.0678 16.9602 20.1919L19.026 20.5962C19.4693 20.683 19.9157 20.4618 20.1152 20.0566L21.1071 18.0418C21.4132 17.4202 21.8451 16.8689 22.3755 16.423L23.9535 15.0964C24.2996 14.8055 24.4074 14.3187 24.2166 13.9089L23.2884 11.9151C22.9806 11.2542 22.8211 10.5339 22.8211 9.80474V7.68941C22.8211 7.23214 22.511 6.83312 22.0678 6.72032L20.2085 6.24702C19.5497 6.07933 18.932 5.77906 18.3932 5.36457L16.6096 3.99243C16.2501 3.7159 15.7496 3.7159 15.3901 3.99243L13.6065 5.36454C13.0677 5.77905 12.45 6.07933 11.7912 6.24702ZM17.8291 2.40722C16.7507 1.57763 15.249 1.57764 14.1706 2.40724L12.387 3.77934C12.0637 4.02805 11.6931 4.20821 11.2978 4.30883L9.43846 4.78214C8.10904 5.12054 7.17851 6.3176 7.17851 7.68942V9.80474C7.17851 10.2422 7.08283 10.6744 6.89818 11.071L5.96994 13.0647C5.39754 14.2941 5.72109 15.7547 6.75917 16.6273L8.33725 17.9539C8.6555 18.2214 8.91467 18.5522 9.09831 18.9252L9.92165 20.5976L7.7731 27.473C7.42075 28.6005 8.63327 29.5756 9.6589 28.9895L11.6855 27.8314L12.8429 29.5675C13.4307 30.4491 14.7697 30.295 15.1418 29.3028L17.7371 22.3819L18.6418 22.559C19.5601 22.7387 20.4828 22.478 21.1631 21.8991L22.441 26.244L21.1695 25.6991C20.5096 25.4162 19.7453 25.7219 19.4625 26.3819L18.93 27.6243L18.3943 26.5528C18.1473 26.0588 17.5466 25.8586 17.0526 26.1056C16.5586 26.3526 16.3584 26.9533 16.6054 27.4472L17.8161 29.8687C18.3111 30.8586 19.7378 30.8167 20.1738 29.7994L21.0251 27.8131L23.0201 28.6681C24.031 29.1014 25.0897 28.1616 24.7794 27.1064L22.5707 19.597L22.9014 18.9252C23.0851 18.5522 23.3442 18.2215 23.6625 17.9539L25.2405 16.6273C26.2786 15.7547 26.6021 14.2941 26.0297 13.0647L25.1015 11.071C24.9168 10.6744 24.8211 10.2422 24.8211 9.80474V7.68941C24.8211 6.3176 23.8906 5.12054 22.5612 4.78213L20.7019 4.30883C20.3066 4.20821 19.936 4.02805 19.6127 3.77936L17.8291 2.40722ZM15.7017 22.1137C15.6086 22.123 15.5158 22.1367 15.4236 22.1547L13.3579 22.559C12.7044 22.6869 12.0486 22.5917 11.4796 22.3175L10.2135 26.3691L11.2606 25.7708C11.8538 25.4318 12.6082 25.6099 12.9872 26.1784L13.749 27.321L15.7017 22.1137Z" fill="url(#paint0_linear_799:49186)"/>
<circle cx="16" cy="12" r="4" stroke="url(#paint1_linear_799:49186)" stroke-width="2"/>
<defs>
<linearGradient id="paint0_linear_799:49186" x1="26.3102" y1="15.1861" x2="5.68945" y2="15.1861" gradientUnits="userSpaceOnUse">
<stop stop-color="#1A78E2"/>
<stop offset="0.483716" stop-color="#0F63D6"/>
<stop offset="1" stop-color="#0049C7"/>
</linearGradient>
<linearGradient id="paint1_linear_799:49186" x1="21" y1="11.6528" x2="11" y2="11.6528" gradientUnits="userSpaceOnUse">
<stop stop-color="#1A78E2"/>
<stop offset="0.483716" stop-color="#0F63D6"/>
<stop offset="1" stop-color="#0049C7"/>
</linearGradient>
</defs>
</svg>
