<svg width="32" height="32" viewBox="0 0 32 32" fill="none" xmlns="http://www.w3.org/2000/svg">
<path fill-rule="evenodd" clip-rule="evenodd" d="M21.6417 5C22.0365 5 22.3619 5.29596 22.4063 5.67726L22.4113 5.78199L22.2014 11.0109C21.7083 10.8603 21.2039 10.7709 20.7019 10.7532L20.9034 6.53333H6.27788L5.50812 22.6333H12.0994L12.0032 24.1667H4.76976C4.34463 24.1667 4 23.8234 4 23.4L4.7088 5.73602C4.72531 5.32486 5.06479 5 5.47794 5H21.6417ZM25.5221 16.8833C25.5221 14.1311 23.2819 11.9 20.5186 11.9C17.7553 11.9 15.5151 14.1311 15.5151 16.8833L15.515 18.0333H14.6884C14.2862 18.0333 13.9518 18.3417 13.9209 18.7412L13.2696 27.1745L13.2673 27.2333C13.2673 27.6567 13.612 28 14.0371 28H25.579C25.9812 28 26.3156 27.6915 26.3465 27.2921L26.9978 18.8588L27.0001 18.8C27.0001 18.3766 26.6555 18.0333 26.2303 18.0333H25.522L25.5221 16.8833ZM15.4011 19.5667H25.3989L24.866 26.4667H14.8682L15.4011 19.5667ZM21.6731 22.6333C21.6731 22.2099 21.3284 21.8667 20.9033 21.8667H20.1335C19.7084 21.8667 19.3638 22.2099 19.3638 22.6333V23.4C19.3638 23.8234 19.7084 24.1667 20.1335 24.1667H20.9033C21.3284 24.1667 21.6731 23.8234 21.6731 23.4V22.6333ZM9.35692 17.2667C9.78205 17.2667 10.1267 17.6099 10.1267 18.0333C10.1267 18.4568 9.78205 18.8 9.35692 18.8C8.93179 18.8 8.58716 18.4568 8.58716 18.0333C8.58716 17.6099 8.93179 17.2667 9.35692 17.2667ZM17.0547 16.8834C17.0547 14.978 18.6055 13.4334 20.5186 13.4334C22.4317 13.4334 23.9826 14.978 23.9826 16.8834V18.0334H17.0547V16.8834ZM9.35692 13.4334C9.78205 13.4334 10.1267 13.7766 10.1267 14.2C10.1267 14.6234 9.78205 14.9667 9.35692 14.9667C8.93179 14.9667 8.58716 14.6234 8.58716 14.2C8.58716 13.7766 8.93179 13.4334 9.35692 13.4334ZM13.9755 14.2C13.9755 13.7766 13.6309 13.4334 13.2058 13.4334H12.436C12.0109 13.4334 11.6663 13.7766 11.6663 14.2C11.6663 14.6234 12.0109 14.9667 12.436 14.9667H13.2058C13.6309 14.9667 13.9755 14.6234 13.9755 14.2ZM9.35692 9.59998C9.78205 9.59998 10.1267 9.94323 10.1267 10.3666C10.1267 10.7901 9.78205 11.1333 9.35692 11.1333C8.93179 11.1333 8.58716 10.7901 8.58716 10.3666C8.58716 9.94323 8.93179 9.59998 9.35692 9.59998ZM16.2848 10.3666C16.2848 9.94323 15.9402 9.59998 15.5151 9.59998H12.436C12.0109 9.59998 11.6663 9.94323 11.6663 10.3666C11.6663 10.7901 12.0109 11.1333 12.436 11.1333H15.5151C15.9402 11.1333 16.2848 10.7901 16.2848 10.3666Z" fill="url(#paint0_linear_4:3098)"/>
<defs>
<linearGradient id="paint0_linear_4:3098" x1="27" y1="15.7014" x2="4" y2="15.7014" gradientUnits="userSpaceOnUse">
<stop stop-color="#1A78E2"/>
<stop offset="0.483716" stop-color="#0F63D6"/>
<stop offset="1" stop-color="#0049C7"/>
</linearGradient>
</defs>
</svg>
