<svg width="32" height="32" viewBox="0 0 32 32" fill="none" xmlns="http://www.w3.org/2000/svg">
<path fill-rule="evenodd" clip-rule="evenodd" d="M26.9961 7.38805C26.9373 6.61191 26.2727 6 25.4615 6H12.3839C11.5639 6 10.888 6.62678 10.847 7.42509L10.6506 11.25H6.22686C5.40844 11.25 4.73322 11.8745 4.69021 12.6712L4 25.4708L4.00391 25.6119C4.06265 26.3881 4.72725 27 5.53846 27H19.3853C20.2037 27 20.8789 26.3755 20.9219 25.5788L21.0881 22.5H24.7691C25.589 22.5 26.265 21.8732 26.3059 21.0749L27 7.52775L26.9961 7.38805ZM6.22673 12.75H10.5735L10.1528 20.9722L10.1567 21.1119C10.2155 21.8881 10.8801 22.5 11.6913 22.5H19.5469L19.3852 25.5H5.53833L6.22673 12.75ZM19.7085 19.5H11.7677L11.6914 21L19.6278 20.9993L19.7085 19.5ZM12.3839 7.49999H25.4615L24.7691 21L21.1689 20.9992L21.6122 12.7792L21.6083 12.638C21.5495 11.8619 20.8849 11.25 20.0737 11.25H12.1909L12.3839 7.49999ZM19.9107 15.75H11.9599L11.8445 18H19.7892L19.9107 15.75ZM12.1138 12.75H20.0735L19.9923 14.25H12.0369L12.1138 12.75Z" fill="url(#paint0_linear_4:3116)"/>
<defs>
<linearGradient id="paint0_linear_4:3116" x1="27" y1="15.7708" x2="4" y2="15.7708" gradientUnits="userSpaceOnUse">
<stop stop-color="#1A78E2"/>
<stop offset="0.483716" stop-color="#0F63D6"/>
<stop offset="1" stop-color="#0049C7"/>
</linearGradient>
</defs>
</svg>
