<svg width="32" height="32" viewBox="0 0 32 32" fill="none" xmlns="http://www.w3.org/2000/svg">
<path d="M16 2.73077L20.3664 8.89892C20.6202 9.25739 20.9849 9.52237 21.4042 9.65294L28.6198 11.8996L24.1028 17.9584C23.8403 18.3105 23.701 18.7392 23.7064 19.1784L23.7995 26.735L16.6414 24.3114C16.2254 24.1706 15.7746 24.1706 15.3586 24.3114L8.20054 26.735L8.29359 19.1784C8.299 18.7392 8.15969 18.3105 7.89718 17.9584L3.38021 11.8996L10.5958 9.65294C11.0151 9.52237 11.3798 9.2574 11.6336 8.89892L16 2.73077Z" stroke="url(#paint0_linear_811:48970)" stroke-width="2"/>
<path d="M16 10.6593L17.6106 12.7919C17.8499 13.1087 18.1781 13.3472 18.5534 13.4769L21.0793 14.3496L19.5488 16.5404C19.3214 16.8659 19.196 17.2517 19.1887 17.6488L19.1392 20.3207L16.5827 19.5421C16.2028 19.4264 15.7972 19.4264 15.4173 19.5421L12.8608 20.3207L12.8113 17.6488C12.804 17.2517 12.6786 16.8659 12.4512 16.5404L10.9207 14.3496L13.4466 13.4769C13.8219 13.3472 14.1501 13.1087 14.3894 12.7919L16 10.6593Z" stroke="url(#paint1_linear_811:48970)" stroke-width="2"/>
<defs>
<linearGradient id="paint0_linear_811:48970" x1="31" y1="14.9583" x2="0.999999" y2="14.9583" gradientUnits="userSpaceOnUse">
<stop stop-color="#1A78E2"/>
<stop offset="0.483716" stop-color="#0F63D6"/>
<stop offset="1" stop-color="#0049C7"/>
</linearGradient>
<linearGradient id="paint1_linear_811:48970" x1="23" y1="15.5139" x2="9" y2="15.5139" gradientUnits="userSpaceOnUse">
<stop stop-color="#1A78E2"/>
<stop offset="0.483716" stop-color="#0F63D6"/>
<stop offset="1" stop-color="#0049C7"/>
</linearGradient>
</defs>
</svg>
