<svg width="32" height="32" viewBox="0 0 32 32" fill="none" xmlns="http://www.w3.org/2000/svg">
<path fill-rule="evenodd" clip-rule="evenodd" d="M14.0476 4C17.0667 4 19.803 5.19977 21.7971 7.1443L22.929 6.02301C23.2266 5.72825 23.709 5.72825 24.0065 6.02301C24.3041 6.31778 24.3041 6.7957 24.0065 7.09046L16.4641 14.5626C16.1665 14.8574 15.6841 14.8574 15.3866 14.5626L12.1541 11.3603L11.0766 12.4277L15.9253 17.2312L26.7003 6.55674C26.9978 6.26197 27.4802 6.26197 27.7778 6.55674C28.0753 6.85151 28.0753 7.32942 27.7778 7.62419L24.3601 11.0106C24.8349 12.2314 25.0952 13.5579 25.0952 14.9446C25.0952 17.3424 24.3169 19.5601 22.9969 21.3633L26.8039 25.1344C27.6965 26.0187 27.6965 27.4525 26.8039 28.3368C25.9113 29.2211 24.4641 29.2211 23.5714 28.3368L19.604 24.4063C17.9717 25.3491 16.0733 25.8892 14.0476 25.8892C7.94619 25.8892 3 20.9892 3 14.9446C3 8.90007 7.94619 4 14.0476 4ZM22.015 22.5264C21.6628 22.8897 21.2854 23.2289 20.8857 23.5413L24.649 27.2693C24.9465 27.5641 25.4289 27.5641 25.7265 27.2693C26.0011 26.9972 26.0223 26.5691 25.7899 26.273L25.7265 26.2019L22.015 22.5264ZM4.52393 14.9446C4.52393 9.73379 8.78788 5.5096 14.0477 5.5096C16.646 5.5096 19.0012 6.54035 20.7195 8.2116L15.9254 12.9614L12.6929 9.75908C12.3954 9.46431 11.913 9.46431 11.6154 9.75908L9.46045 11.894C9.16291 12.1887 9.16291 12.6667 9.46045 12.9614L15.3867 18.8324C15.6842 19.1272 16.1666 19.1272 16.4642 18.8324L23.1616 12.1978C23.4282 13.0669 23.5715 13.9892 23.5715 14.9446C23.5715 20.1554 19.3076 24.3796 14.0477 24.3796C8.78788 24.3796 4.52393 20.1554 4.52393 14.9446Z" fill="url(#paint0_linear_4:3110)"/>
<defs>
<linearGradient id="paint0_linear_4:3110" x1="28.0009" y1="15.6319" x2="3" y2="15.6319" gradientUnits="userSpaceOnUse">
<stop stop-color="#1A78E2"/>
<stop offset="0.483716" stop-color="#0F63D6"/>
<stop offset="1" stop-color="#0049C7"/>
</linearGradient>
</defs>
</svg>
