<svg data-v-61dd7a3d="" width="32" height="32" viewBox="0 0 24 24" fill="none" xmlns="http://www.w3.org/2000/svg"><path fill-rule="evenodd" clip-rule="evenodd" d="M9 6.77485L7 7.44152L7 17.2251L9 16.5585V6.77485ZM9.65648 4.44784L6.36754 5.54415C5.55086 5.81638 5 6.58066 5 7.44152V17.2251C5 18.5903 6.33739 19.5542 7.63246 19.1225L9.63246 18.4558C9.76204 18.4126 9.88494 18.3571 10 18.2907C10.1151 18.3571 10.238 18.4127 10.3675 18.4558L13.6565 19.5522C13.7645 19.5919 13.8802 19.6134 13.9991 19.6133C14.1187 19.6136 14.2351 19.5921 14.3437 19.5521L17.6325 18.4558C18.4491 18.1836 19 17.4193 19 16.5585V6.77485C19 5.40973 17.6626 4.44579 16.3675 4.87748L14.3675 5.54415C14.238 5.58734 14.1151 5.64293 14 5.70932C13.8849 5.64293 13.762 5.58735 13.6325 5.54415L10.3437 4.4479C10.2351 4.40787 10.1186 4.38635 9.99898 4.38666C9.8801 4.3866 9.76443 4.40807 9.65648 4.44784ZM11 6.77485V16.5585L13 17.2251V7.44152L11 6.77485ZM15 7.44152V17.2251L17 16.5585V6.77485L15 7.44152Z" fill="#1A78E2"></path></svg>