<svg width="32" height="32" viewBox="0 0 32 32" fill="none" xmlns="http://www.w3.org/2000/svg">
<rect x="12.1904" y="16" width="12.9524" height="4.57143" fill="white"/>
<rect x="12.9521" y="3.80951" width="4.57143" height="2.28571" fill="white"/>
<path fill-rule="evenodd" clip-rule="evenodd" d="M25.1564 11.4118C27.2792 11.4118 29 13.1236 29 15.2353V19.8236C29 20.3564 28.7261 20.8255 28.3108 21.0993L28.3172 20.9169C28.2543 23.4786 27.4514 25.2115 26.1743 26.4819L26.1109 26.5383C25.1625 27.2931 24.0209 27.621 22.9282 27.6043L21.9916 29H20.4541L21.5342 27.3888C20.4803 27.0689 19.5984 26.4082 19.1697 25.5021C18.8132 24.7485 19.0451 24.1371 19.6724 23.6594L20.4119 23.146C20.4516 23.1173 20.4848 23.0926 20.5084 23.0738C21.0155 22.6701 21.3249 22.1704 21.4101 21.3536L18.9842 21.3544C18.845 23.6781 18.0627 25.2852 16.8596 26.4819L16.7963 26.5383C15.8737 27.2726 14.7681 27.6029 13.7027 27.6049L12.7669 29H11.2294L12.2949 27.411C11.2078 27.1002 10.2939 26.4298 9.85507 25.5021C9.49855 24.7485 9.73049 24.1371 10.3577 23.6594L11.0972 23.146C11.1369 23.1173 11.1701 23.0926 11.1938 23.0738C11.7008 22.6701 12.0103 22.1704 12.0954 21.3536C11.239 21.353 10.5506 20.6682 10.5506 19.8236V17.5294C10.5506 16.0822 11.561 14.8697 12.9184 14.5519C13.2416 12.7666 14.8119 11.4118 16.7004 11.4118H25.1564ZM17.4442 21.3535L13.6392 21.3541C13.5387 22.6646 13.0213 23.5779 12.1545 24.2679C12.0689 24.3361 11.9272 24.4371 11.7831 24.5374L11.2664 24.8905L11.3119 24.9741C11.9715 26.0862 14.1338 26.5383 15.6694 25.4682L15.8033 25.3697L15.9254 25.2425C16.7707 24.334 17.3232 23.1318 17.4442 21.3535ZM25.1563 12.9412H16.7004C15.6962 12.9412 14.842 13.5796 14.5254 14.4707L22.0814 14.4706C23.7797 14.4706 25.1563 15.8401 25.1563 17.5294V19.8236C25.1563 20.6682 24.468 21.353 23.6189 21.353L22.9537 21.3541C22.8531 22.6646 22.3357 23.5779 21.469 24.2679C21.3833 24.3361 21.2416 24.4372 21.0976 24.5374L20.5808 24.8905L20.6263 24.9741C21.286 26.0862 23.4482 26.5383 24.9838 25.4682L25.1177 25.3698L25.2398 25.2425C26.0852 24.334 26.6376 23.1318 26.7586 21.3535L27.4625 19.8236V15.2353C27.4625 13.9683 26.43 12.9412 25.1563 12.9412ZM18.9119 3L17.9895 5.29412H21.9868L20.8167 8.20512C21.663 8.6532 22.386 9.21152 22.9498 9.88185L20.6495 9.88239C20.4751 9.76786 20.29 9.65882 20.0943 9.55523L18.8771 8.91083L19.7162 6.82353H8.88297L9.72203 8.91083L8.50484 9.55523C6.74653 10.4861 5.84362 11.8571 5.84362 13.7059C5.84362 15.9137 7.10157 18.3343 9.01813 20.0071C9.06257 20.7513 9.37425 21.4234 9.85941 21.9304L9.98426 22.0537L9.60411 22.3177C6.9464 20.7445 5.00433 17.9895 4.46027 15.2357L2.76872 15.2353C2.34417 15.2353 2 14.8929 2 14.4706V12.9412C2 12.5188 2.34417 12.1765 2.76872 12.1765C3.19328 12.1765 3.53745 12.5188 3.53745 12.9412V13.7059H4.30617C4.30617 11.1561 5.65394 9.33203 7.78253 8.20512L6.61235 5.29412H10.6097L9.68724 3H18.9119ZM22.0816 16H13.6256C12.7765 16 12.0881 16.6848 12.0881 17.5294V19.8235H23.619V17.5294C23.619 16.6848 22.9307 16 22.0816 16ZM16.6412 4.52941H11.9583L12.2657 5.29411H16.3337L16.6412 4.52941Z" fill="url(#paint0_linear_4:3106)"/>
<defs>
<linearGradient id="paint0_linear_4:3106" x1="29" y1="15.0972" x2="2" y2="15.0972" gradientUnits="userSpaceOnUse">
<stop stop-color="#1A78E2"/>
<stop offset="0.483716" stop-color="#0F63D6"/>
<stop offset="1" stop-color="#0049C7"/>
</linearGradient>
</defs>
</svg>
