<svg width="32" height="32" viewBox="0 0 32 32" fill="none" xmlns="http://www.w3.org/2000/svg">
<path opacity="0.01" fill-rule="evenodd" clip-rule="evenodd" d="M5.10414 9.60798C5.23371 8.0531 6.53351 6.85712 8.09378 6.85712H15.7873C17.5424 6.85712 18.9227 8.3572 18.7769 10.1063L17.7531 22.392C17.6235 23.9468 16.3237 25.1428 14.7635 25.1428H7.06997C5.31485 25.1428 3.93458 23.6428 4.08033 21.8937L5.10414 9.60798Z" fill="url(#paint0_linear_4:3099)"/>
<path opacity="0.01" fill-rule="evenodd" clip-rule="evenodd" d="M14.7987 26.4927C15.0484 23.9963 17.149 22.0952 19.6579 22.0952H23.8186C26.5675 22.0952 28.7154 24.4686 28.4419 27.2039C28.2994 28.629 27.1002 29.7143 25.6679 29.7143H17.7142C15.9807 29.7143 14.6262 28.2176 14.7987 26.4927Z" fill="url(#paint1_linear_4:3099)"/>
<path fill-rule="evenodd" clip-rule="evenodd" d="M7.43121 16H16C16.4208 16 16.7619 16.3358 16.7619 16.75C16.7619 17.1642 16.4208 17.5 16 17.5C14.7376 17.5 13.7143 18.5074 13.7143 19.75C13.7143 20.2057 13.8519 20.6298 14.0885 20.9841C13.886 21.5435 13.7605 22.139 13.7248 22.758C13.7178 22.8795 13.7143 23.0018 13.7143 23.125V23.5H3.80952C1.70558 23.5 0 21.8211 0 19.75C0 17.6789 1.70558 16 3.80952 16H5.90212L6.74334 6.06315C6.84206 4.89699 7.83238 4 9.02116 4H21.963C23.2253 4 24.2487 5.00736 24.2487 6.25C24.2487 6.31236 24.2461 6.3747 24.2408 6.43685L23.3677 16.75H21.8386L22.7222 6.31228C22.724 6.29157 22.7249 6.27079 22.7249 6.25C22.7249 5.83579 22.3838 5.5 21.963 5.5H9.02116C8.6249 5.5 8.29479 5.799 8.26188 6.18772L7.43121 16ZM27.0476 18.25H20.1904C17.4553 18.25 15.238 20.4326 15.238 23.125V24.25C15.238 26.3211 16.9436 28 19.0476 28H28.1904C30.2944 28 31.9999 26.3211 31.9999 24.25V23.125C31.9999 20.4326 29.7827 18.25 27.0476 18.25ZM25.3166 22.2372L26.1588 19.75H27.0477C28.9412 19.75 30.4762 21.261 30.4762 23.125V24.25C30.4762 25.4926 29.4529 26.5 28.1905 26.5H19.0477C17.7853 26.5 16.762 25.4926 16.762 24.25V23.125C16.762 21.261 18.297 19.75 20.1905 19.75H21.5874L20.8124 22.0385C20.7938 22.0936 20.7842 22.1513 20.7842 22.2094C20.7842 22.508 21.0301 22.75 21.3334 22.75H21.5461C21.8741 22.75 22.1652 22.5434 22.269 22.2372L23.1112 19.75H24.635L23.86 22.0385C23.8414 22.0936 23.8319 22.1513 23.8319 22.2094C23.8319 22.508 24.0777 22.75 24.381 22.75H24.5938C24.9217 22.75 25.2129 22.5434 25.3166 22.2372ZM12.9522 22H3.80964C2.54727 22 1.52393 20.9926 1.52393 19.75C1.52393 18.5074 2.54727 17.5 3.80964 17.5H12.9522C12.474 18.1268 12.1906 18.9058 12.1906 19.75C12.1906 20.5942 12.474 21.3733 12.9522 22ZM12.1905 6.99999C13.4529 6.99999 14.4762 8.00735 14.4762 9.24999V9.99999C14.4762 11.2426 13.4529 12.25 12.1905 12.25C10.9281 12.25 9.90479 11.2426 9.90479 9.99999V9.24999C9.90479 8.00735 10.9281 6.99999 12.1905 6.99999ZM11.4285 9.24998C11.4285 8.83577 11.7696 8.49998 12.1904 8.49998C12.6112 8.49998 12.9523 8.83577 12.9523 9.24998V9.99998C12.9523 10.4142 12.6112 10.75 12.1904 10.75C11.7696 10.75 11.4285 10.4142 11.4285 9.99998V9.24998ZM16.7619 7.74999H19.0476C19.4684 7.74999 19.8095 8.08577 19.8095 8.49999C19.8095 8.9142 19.4684 9.24999 19.0476 9.24999H16.7619C16.3411 9.24999 16 8.9142 16 8.49999C16 8.08577 16.3411 7.74999 16.7619 7.74999ZM19.0476 10.75H16.7619C16.3411 10.75 16 11.0858 16 11.5C16 11.9142 16.3411 12.25 16.7619 12.25H19.0476C19.4684 12.25 19.8095 11.9142 19.8095 11.5C19.8095 11.0858 19.4684 10.75 19.0476 10.75Z" fill="url(#paint2_linear_4:3099)"/>
<defs>
<linearGradient id="paint0_linear_4:3099" x1="9.33974" y1="-4.42039" x2="-13.0166" y2="14.7185" gradientUnits="userSpaceOnUse">
<stop offset="0.000237542" stop-color="#FF0000"/>
<stop offset="0.506044" stop-color="#FF144C" stop-opacity="0.143247"/>
<stop offset="1" stop-color="#FF00AC" stop-opacity="0.114265"/>
</linearGradient>
<linearGradient id="paint1_linear_4:3099" x1="19.7323" y1="17.3928" x2="12.0787" y2="32.3318" gradientUnits="userSpaceOnUse">
<stop offset="0.000237542" stop-color="#FF0000"/>
<stop offset="0.506044" stop-color="#FF144C" stop-opacity="0.143247"/>
<stop offset="1" stop-color="#FF00AC" stop-opacity="0.114265"/>
</linearGradient>
<linearGradient id="paint2_linear_4:3099" x1="32" y1="15.1667" x2="-6.39514e-07" y2="15.1667" gradientUnits="userSpaceOnUse">
<stop stop-color="#1A78E2"/>
<stop offset="0.483716" stop-color="#0F63D6"/>
<stop offset="1" stop-color="#0049C7"/>
</linearGradient>
</defs>
</svg>
