<svg width="32" height="32" viewBox="0 0 32 32" fill="none" xmlns="http://www.w3.org/2000/svg">
<path fill-rule="evenodd" clip-rule="evenodd" d="M27.9844 17.6571C27.9844 17.919 28.0194 18.1766 27.9844 18.4285H27.9741C27.7835 22.5841 24.9749 26.2204 20.8294 27.8647L20.4942 27.9926V28.4571C20.4942 29.3092 19.8235 30 18.9961 30H13.0039C12.1765 30 11.5058 29.3092 11.5058 28.4571V27.9926L11.416 27.9591C7.13624 26.3628 4.22028 22.6656 4.0259 18.4285H4.01555C3.98056 18.1766 4.01555 17.919 4.01555 17.6571V16.8857H4.06865C4.4321 14.2688 6.61732 12.2571 9.25875 12.2571C9.62341 12.2571 9.97939 12.2955 10.3231 12.3684C11.5218 10.4455 13.6164 9.17141 16 9.17141C18.3836 9.17141 20.4782 10.4455 21.6769 12.3684C22.0206 12.2955 22.3766 12.2571 22.7413 12.2571C25.3827 12.2571 27.5679 14.2688 27.9314 16.8857H27.9844V17.6571ZM26.4862 18.4286H5.51343C5.83284 21.8137 7.9743 24.7793 11.5057 26.1429C12.333 26.1429 13.0037 26.8336 13.0037 27.6857V28.4571H18.9959V27.6857C18.9959 26.8336 19.6666 26.1429 20.494 26.1429C24.0253 24.7793 26.1668 21.8137 26.4862 18.4286ZM9.25882 13.8C7.447 13.8 5.93568 15.1251 5.58862 16.8856L10.81 16.8857C10.9225 16.0759 11.2094 15.324 11.6304 14.6717C10.9845 14.1269 10.1588 13.8 9.25882 13.8ZM15.9998 13.8C14.188 13.8 12.6766 15.1251 12.3296 16.8856L17.5509 16.8857C17.6634 16.0759 17.9504 15.324 18.3713 14.6717C17.7255 14.1269 16.8997 13.8 15.9998 13.8ZM22.7412 13.8C20.9294 13.8 19.4181 15.1251 19.071 16.8856H26.4114C26.0644 15.1251 24.5531 13.8 22.7412 13.8ZM16 10.7143C14.2657 10.7143 12.7281 11.5815 11.7737 12.9178C12.0786 13.0897 12.3651 13.292 12.6294 13.5207C13.5408 12.7321 14.7165 12.2572 16 12.2572C17.2835 12.2572 18.4592 12.7321 19.3706 13.5207C19.6349 13.292 19.9214 13.0897 20.2263 12.9178C19.2718 11.5815 17.7342 10.7143 16 10.7143ZM24.9883 6.0857C25.2225 6.0857 25.4124 6.28125 25.4124 6.52248C25.4124 6.60164 25.3915 6.67932 25.352 6.7472L23.7085 9.56831C23.5731 9.80067 23.3293 9.94285 23.0662 9.94285H22.7412C22.507 9.94285 22.3171 9.74729 22.3171 9.50607C22.3171 9.42691 22.338 9.34923 22.3776 9.28135L24.0211 6.46023C24.1565 6.22788 24.4003 6.0857 24.6634 6.0857H24.9883ZM10.0078 6.0857C10.2421 6.0857 10.4319 6.28125 10.4319 6.52248C10.4319 6.60164 10.411 6.67932 10.3715 6.7472L8.72798 9.56831C8.59262 9.80067 8.3488 9.94285 8.0857 9.94285H7.76076C7.52654 9.94285 7.33667 9.74729 7.33667 9.50607C7.33667 9.42691 7.35756 9.34923 7.39711 9.28135L9.04062 6.46023C9.17599 6.22788 9.41981 6.0857 9.68291 6.0857H10.0078ZM17.498 3C17.7322 3 17.9221 3.19555 17.9221 3.43678C17.9221 3.51594 17.9012 3.59361 17.8616 3.66149L16.2181 6.48261C16.0828 6.71497 15.8389 6.85714 15.5758 6.85714H15.2509C15.0167 6.85714 14.8268 6.66159 14.8268 6.42037C14.8268 6.3412 14.8477 6.26353 14.8872 6.19565L16.5308 3.37453C16.6661 3.14217 16.9099 3 17.1731 3H17.498Z" fill="url(#paint0_linear_4:3102)"/>
<defs>
<linearGradient id="paint0_linear_4:3102" x1="28" y1="15.5625" x2="4" y2="15.5625" gradientUnits="userSpaceOnUse">
<stop stop-color="#1A78E2"/>
<stop offset="0.483716" stop-color="#0F63D6"/>
<stop offset="1" stop-color="#0049C7"/>
</linearGradient>
</defs>
</svg>
