<svg width="32" height="32" viewBox="0 0 32 32" fill="none" xmlns="http://www.w3.org/2000/svg">
<path d="M17 19H21V25H17V19Z" stroke="url(#paint0_linear_784:46573)" stroke-width="2"/>
<path d="M10 15L14 15V25H10V15Z" stroke="url(#paint1_linear_784:46573)" stroke-width="2"/>
<path fill-rule="evenodd" clip-rule="evenodd" d="M24 27H7L7 6L16.5 6V11.5C16.5 12.6046 17.3954 13.5 18.5 13.5H24V27ZM23.0371 11.5L18.5 7.03802V11.5H23.0371ZM25.7012 11.3148L18.555 4.28701C18.368 4.10308 18.1162 4 17.8538 4H7C5.89543 4 5 4.89543 5 6V27C5 28.1046 5.89543 29 7 29H24C25.1046 29 26 28.1046 26 27V12.0278C26 11.7597 25.8923 11.5028 25.7012 11.3148Z" fill="url(#paint2_linear_784:46573)"/>
<defs>
<linearGradient id="paint0_linear_784:46573" x1="22" y1="21.7222" x2="16" y2="21.7222" gradientUnits="userSpaceOnUse">
<stop stop-color="#1A78E2"/>
<stop offset="0.483716" stop-color="#0F63D6"/>
<stop offset="1" stop-color="#0049C7"/>
</linearGradient>
<linearGradient id="paint1_linear_784:46573" x1="15" y1="19.5833" x2="9" y2="19.5833" gradientUnits="userSpaceOnUse">
<stop stop-color="#1A78E2"/>
<stop offset="0.483716" stop-color="#0F63D6"/>
<stop offset="1" stop-color="#0049C7"/>
</linearGradient>
<linearGradient id="paint2_linear_784:46573" x1="26" y1="15.6319" x2="5" y2="15.6319" gradientUnits="userSpaceOnUse">
<stop stop-color="#1A78E2"/>
<stop offset="0.483716" stop-color="#0F63D6"/>
<stop offset="1" stop-color="#0049C7"/>
</linearGradient>
</defs>
</svg>
