<svg width="32" height="32" viewBox="0 0 32 32" fill="none" xmlns="http://www.w3.org/2000/svg">
<rect opacity="0.01" x="0.5" y="0.5" width="31" height="31" fill="#D8D8D8" stroke="#979797"/>
<path fill-rule="evenodd" clip-rule="evenodd" d="M16.3004 4.5C20.7012 4.5 24.315 7.79513 24.7025 12H23.2702C22.4627 12 21.7934 12.6123 21.7397 13.4002L21.1773 21.6502C21.1209 22.4768 21.7605 23.1916 22.6058 23.2467C22.6397 23.2489 22.6737 23.25 22.7078 23.25H24.7369V24.75C24.7369 25.9926 23.7068 27 22.436 27H21.8417C21.8417 26.1716 21.155 25.5 20.3078 25.5H15.1051C14.4448 25.5 13.8587 25.9131 13.6499 26.5257L13.1386 28.0257C13.0864 28.1786 13.0598 28.3388 13.0598 28.5C13.0598 29.3284 13.7466 30 14.5938 30H19.7965C20.4568 30 21.0429 29.5869 21.2517 28.9743L21.4134 28.5H22.436C24.5539 28.5 26.2708 26.8211 26.2708 24.75V23.1444C28.1833 22.7275 29.6499 21.1208 29.7853 19.1341L29.9911 16.1159C30.1361 13.9892 28.4907 12.1503 26.3159 12.0085C26.2913 12.0069 26.2667 12.0056 26.2421 12.0044C25.8526 6.96798 21.5504 3 16.3004 3C11.0472 3 6.74288 6.97278 6.35791 12.0135C4.14602 12.1826 2.36445 13.9164 2.21451 16.1159L2.00874 19.1341C2.00292 19.2196 2 19.3052 2 19.3908C2 21.5222 3.76687 23.25 5.94642 23.25H8.72963C9.53718 23.25 10.2064 22.6377 10.2601 21.8498L10.8226 13.5998C10.8248 13.5666 10.826 13.5333 10.826 13.5C10.826 12.6716 10.1392 12 9.29206 12H7.89821C8.2857 7.79513 11.8995 4.5 16.3004 4.5ZM28.2548 19.0344C28.1506 20.5626 26.8526 21.75 25.2865 21.75H22.7078L23.2702 13.5H26.0534C26.1069 13.5 26.1605 13.5018 26.2139 13.5052C27.5433 13.5919 28.5492 14.7161 28.4606 16.0161L28.2548 19.0344ZM6.71339 13.5C5.1472 13.5 3.84923 14.6875 3.74505 16.2157L3.53928 19.2339C3.53572 19.2862 3.53394 19.3385 3.53394 19.3909C3.53394 20.6938 4.61405 21.75 5.94644 21.75H8.72965L9.29208 13.5H6.71339ZM14.5938 28.5L15.1051 27H20.3078L19.7965 28.5H14.5938Z" fill="url(#paint0_linear_4:3107)"/>
<defs>
<linearGradient id="paint0_linear_4:3107" x1="30" y1="15.5625" x2="2" y2="15.5625" gradientUnits="userSpaceOnUse">
<stop stop-color="#1A78E2"/>
<stop offset="0.483716" stop-color="#0F63D6"/>
<stop offset="1" stop-color="#0049C7"/>
</linearGradient>
</defs>
</svg>
