<svg width="32" height="32" viewBox="0 0 32 32" fill="none" xmlns="http://www.w3.org/2000/svg">
<path fill-rule="evenodd" clip-rule="evenodd" d="M24.6642 7.08541C24.9203 6.58673 24.5478 6 23.975 6H19.8285L20.8119 4.08541C21.068 3.58673 20.6955 3 20.1228 3H10.8772C10.3045 3 9.93199 3.58673 10.1881 4.08541L11.1715 6H7.02496C6.45221 6 6.0797 6.58673 6.33584 7.08541L7.49688 9.34583C5.12822 10.4101 3.9911 12.6313 3.9772 15.0003L2.86448 15L2.5533 13.4854C2.46545 13.0578 2.07974 12.75 1.63175 12.75C1.59015 12.75 1.54866 12.754 1.50787 12.7619C1.16581 12.8285 0.943975 13.1525 1.01239 13.4854L1.384 15.2942C1.52806 15.9953 2.16047 16.5 2.895 16.5L4.11548 16.5001C4.34404 17.7064 4.85375 18.8965 5.63063 19.9401C6.1548 20.6442 6.75627 21.24 7.45981 21.7865C8.02718 22.2272 9.72507 23.3083 9.85422 23.3853L10.001 23.4867C10.6475 23.9505 10.8772 24.2871 10.8772 24.75L10.8765 27H10.1068L10.0169 27.005C9.63376 27.0484 9.33633 27.3654 9.33633 27.75V29.25L9.34152 29.3375C9.38602 29.7105 9.71167 30 10.1068 30C10.5323 30 10.8772 29.6642 10.8772 29.25V28.5H20.1228V29.25L20.1279 29.3375C20.1724 29.7105 20.4981 30 20.8932 30C21.3187 30 21.6637 29.6642 21.6637 29.25V27.75L21.6585 27.6625C21.614 27.2895 21.2883 27 20.8932 27H20.122L20.1228 24.75C20.1228 24.254 20.3865 23.9031 21.144 23.3852L21.4773 23.1761C21.9727 22.8595 22.8888 22.2644 23.3842 21.9034L23.5402 21.7865C24.2437 21.24 24.8452 20.6442 25.3694 19.9401C26.1463 18.8965 26.656 17.7064 26.8845 16.5001L28.105 16.5L28.2264 16.4954C28.9083 16.4433 29.4799 15.9564 29.616 15.2942L29.9876 13.4854L29.9983 13.4089C30.0212 13.1041 29.8079 12.8234 29.4921 12.7619C29.4513 12.754 29.4098 12.75 29.3683 12.75C28.9203 12.75 28.5346 13.0578 28.4467 13.4854L28.1355 15L27.0228 15.0003C27.0089 12.6313 25.8718 10.4101 23.5031 9.34583L24.6642 7.08541ZM12.4182 25.5H18.5819V27H12.4182V25.5ZM22.846 10.7059L22.7372 10.8282C21.5899 12.0718 19.7359 12.9782 17.5651 13.3341C17.6019 13.3635 17.6381 13.3956 17.6731 13.4296L19.5119 15.2197C19.7225 15.4246 19.7929 15.7293 19.6927 16.0023L17.9492 20.7545C17.7302 21.3515 17.1493 21.75 16.498 21.75H12.7411C11.89 21.75 11.2002 21.0784 11.2002 20.25C11.2002 20.0781 11.2305 19.9074 11.2899 19.7455L12.7704 15.7102C12.8721 15.4331 13.0552 15.1912 13.297 15.0147L15.373 13.4985L15.2376 13.4974C12.232 13.4374 9.58561 12.3512 8.15413 10.7068C5.09453 12.1025 4.75398 16.2061 6.87845 19.0599C7.31623 19.648 7.82094 20.1479 8.42101 20.6141L8.57474 20.7286C9.21918 21.1946 10.6845 22.1248 10.7421 22.1583C11.5892 22.7371 12.1105 23.2949 12.3167 24H18.6835C18.875 23.3453 19.3381 22.8176 20.0818 22.2816L20.2726 22.1495C20.4528 22.0379 22.0791 21.0025 22.5792 20.6141C23.1792 20.1479 23.6839 19.648 24.1217 19.0599C26.2462 16.2061 25.9056 12.1025 22.846 10.7059ZM14.2215 16.2147L16.5834 14.4903L18.0775 15.9447L16.4979 20.25H12.741L14.2215 16.2147ZM22.7278 7.49998H8.27173L9.24864 9.40193C9.26061 9.42423 9.27151 9.44728 9.28126 9.47106C9.31483 9.55237 9.3327 9.63658 9.33606 9.72025L9.33467 9.73846C10.4782 11.056 12.7867 12 15.5001 12C18.2136 12 20.522 11.056 21.6656 9.73846L21.6642 9.72025C21.6678 9.63246 21.6873 9.54408 21.7241 9.45907L21.7516 9.40193L22.7278 7.49998ZM12.124 4.49999H18.8763L18.1051 5.99999H12.8945L12.124 4.49999Z" fill="url(#paint0_linear_4:3111)"/>
<defs>
<linearGradient id="paint0_linear_4:3111" x1="30" y1="15.5625" x2="0.999999" y2="15.5625" gradientUnits="userSpaceOnUse">
<stop stop-color="#1A78E2"/>
<stop offset="0.483716" stop-color="#0F63D6"/>
<stop offset="1" stop-color="#0049C7"/>
</linearGradient>
</defs>
</svg>
