<svg width="32" height="32" viewBox="0 0 32 32" fill="none" xmlns="http://www.w3.org/2000/svg">
<rect x="17.1426" y="2.70496" width="5.33333" height="5.33333" transform="rotate(45 17.1426 2.70496)" fill="white"/>
<path fill-rule="evenodd" clip-rule="evenodd" d="M15.8763 3L20.6674 7.88611L15.8763 12.7722L11.0852 7.88611L15.8763 3ZM22.2756 9.03776C23.5155 9.03776 24.5613 9.97932 24.7151 11.234L25.9884 21.6221C26.046 22.0923 25.8875 22.5633 25.559 22.8984L23.0285 25.4791V27.4644C23.0285 28.3125 22.3543 29 21.5228 29H16.2528C15.9785 29 15.7213 28.9252 15.4998 28.7944C15.3093 28.9071 15.0918 28.9783 14.8595 28.9958L14.7472 29H9.47723C8.68346 29 8.03315 28.3736 7.97567 27.579L7.97154 27.4644V25.4791L5.44102 22.8984C5.14234 22.5938 4.98422 22.1769 5.00124 21.7503L5.01164 21.6221L6.2849 11.234C6.43869 9.97932 7.48452 9.03776 8.72439 9.03776C9.92719 9.03776 10.9104 9.99666 10.9791 11.2058L10.9829 11.3411L10.9826 16.5326C11.0432 16.4897 11.1061 16.4489 11.1711 16.4106C12.388 15.6942 13.9322 16.08 14.6922 17.2643L14.7706 17.3942L15.8244 19.3674L16.9424 17.3942C17.5722 16.2819 18.864 15.8024 20.0172 16.1746L20.0171 11.3411C20.0171 10.069 21.0283 9.03776 22.2756 9.03776ZM8.72454 10.5733C8.27607 10.5733 7.8931 10.8912 7.79557 11.3289L7.77912 11.4245L6.50586 21.8126L9.47739 24.8431V27.4644H14.7473V20.5544H14.821L13.4667 18.162C13.1733 17.6436 12.5442 17.4459 12.0209 17.6896L11.9241 17.7405C11.4158 18.0398 11.222 18.6813 11.4609 19.215L11.5108 19.3137L13.5811 22.9707L12.2772 23.7385L10.2068 20.0815L10.1049 19.9125C9.96584 19.693 9.75668 19.3951 9.47739 19.0189V11.3411C9.47739 10.9171 9.14033 10.5733 8.72454 10.5733ZM21.5226 11.3411C21.5226 10.9171 21.8597 10.5733 22.2755 10.5733C22.756 10.5733 23.1613 10.9382 23.2209 11.4245L24.4941 21.8126L21.5226 24.8431V27.4644H16.2527V21.6831L18.2462 18.162C18.5581 17.6112 19.2487 17.4224 19.7889 17.7405C20.329 18.0585 20.514 18.7628 20.2022 19.3137L18.1319 22.9707L19.4358 23.7385L21.5062 20.0815C21.9877 19.2309 21.9614 18.2235 21.5234 17.4242L21.5226 11.3411ZM13.2146 7.88608L15.8763 5.17158L18.538 7.88608L15.8763 10.6006L13.2146 7.88608Z" fill="url(#paint0_linear_4:3101)"/>
<defs>
<linearGradient id="paint0_linear_4:3101" x1="26" y1="15.0972" x2="5" y2="15.0972" gradientUnits="userSpaceOnUse">
<stop stop-color="#1A78E2"/>
<stop offset="0.483716" stop-color="#0F63D6"/>
<stop offset="1" stop-color="#0049C7"/>
</linearGradient>
</defs>
</svg>
