<svg width="32" height="32" viewBox="0 0 32 32" fill="none" xmlns="http://www.w3.org/2000/svg">
<path fill-rule="evenodd" clip-rule="evenodd" d="M23.6471 3C26.5418 3 28.8999 5.29778 28.9969 8.16891L29 8.35294L23.6471 21.3529V25.1765H28.2353C28.6275 25.1765 28.9507 25.4717 28.9949 25.852L29 25.9412V28.2353C29 28.6576 28.6576 29 28.2353 29C27.8431 29 27.5199 28.7048 27.4757 28.3245L27.4706 28.2353V26.7059H4.52941V28.2353C4.52941 28.6576 4.18704 29 3.76471 29C3.37254 29 3.04932 28.7048 3.00514 28.3245L3 28.2353V25.9412C3 25.549 3.29521 25.2258 3.67553 25.1816L3.76471 25.1765H18.2941V21.3529L12.9412 8.35294C12.9412 5.39659 15.3378 3 18.2941 3H23.6471ZM23.647 4.52941H18.294C16.2759 4.52941 14.623 6.09287 14.4805 8.07461L19.8234 21.0504V25.1765H22.1176V21.0504L27.4605 8.07461C27.318 6.09287 25.665 4.52941 23.647 4.52941ZM14.4654 22.0285C14.4213 21.6481 14.0981 21.3529 13.7059 21.3529C13.2835 21.3529 12.9412 21.6953 12.9412 22.1176H4.52941L4.52427 22.0285C4.48009 21.6481 4.15687 21.3529 3.76471 21.3529C3.34237 21.3529 3 21.6953 3 22.1176V22.8823L3.00514 22.9715C3.04932 23.3518 3.37254 23.647 3.76471 23.647H13.7059L13.7951 23.6419C14.1754 23.5977 14.4706 23.2745 14.4706 22.8823V22.1176L14.4654 22.0285ZM12.9413 17.5294C12.9413 20.4412 10.4775 20.6154 9.25613 20.6001L8.83519 20.5897H8.63566L8.21471 20.6001C6.99334 20.6154 4.52954 20.4412 4.52954 17.5294C4.52954 13.5941 7.62359 14.4405 8.50416 14.7611L8.54919 14.7777L8.73542 14.853L8.92166 14.7777C9.73576 14.4723 12.9413 13.5238 12.9413 17.5294ZM9.52233 16.1865C9.58332 16.165 9.64955 16.1434 9.71985 16.1227C10.0742 16.0185 10.4234 15.9686 10.6998 15.9937C11.2003 16.0392 11.4118 16.2892 11.4118 17.5294C11.4118 18.4705 11.1219 18.7946 10.4024 18.9695C10.0212 19.0621 9.62935 19.0826 9.04988 19.0658L8.96763 19.0634L8.5846 19.0611L8.21188 19.0703C7.74347 19.0763 7.40175 19.0505 7.06826 18.9695C6.34873 18.7946 6.05884 18.4705 6.05884 17.5294C6.05884 16.2892 6.27032 16.0392 6.77083 15.9937C7.0256 15.9706 7.34478 16.0112 7.67572 16.1015C7.81508 16.1395 7.9307 16.1782 8.01068 16.2081L8.10243 16.2453L8.73531 16.533L9.36818 16.2453L9.43493 16.2187L9.52233 16.1865ZM9.49996 11.4118C9.80436 11.4118 10.0511 11.6586 10.0511 11.963C10.0511 12.0222 10.0416 12.0811 10.0228 12.1373L9.67425 13.183C9.57016 13.4953 9.27794 13.7059 8.94879 13.7059H8.73525C8.43085 13.7059 8.18408 13.4591 8.18408 13.1547C8.18408 13.0955 8.19363 13.0366 8.21237 12.9804L8.56096 11.9347C8.66504 11.6224 8.95727 11.4118 9.28642 11.4118H9.49996ZM23.3153 7.25648C23.3153 7.01736 23.1215 6.82351 22.8824 6.82351H22.5506C22.282 6.82351 22.0331 6.96445 21.8949 7.19478L20.217 9.99131C20.1766 10.0586 20.1553 10.1356 20.1553 10.2141C20.1553 10.4532 20.3491 10.647 20.5882 10.647H20.92C21.1886 10.647 21.4375 10.5061 21.5757 10.2758L23.2536 7.47924C23.294 7.41195 23.3153 7.33496 23.3153 7.25648Z" fill="url(#paint0_linear_4:3118)"/>
<defs>
<linearGradient id="paint0_linear_4:3118" x1="29" y1="15.0972" x2="3" y2="15.0972" gradientUnits="userSpaceOnUse">
<stop stop-color="#1A78E2"/>
<stop offset="0.483716" stop-color="#0F63D6"/>
<stop offset="1" stop-color="#0049C7"/>
</linearGradient>
</defs>
</svg>
