<svg width="32" height="32" viewBox="0 0 32 32" fill="none" xmlns="http://www.w3.org/2000/svg">
<circle cx="16" cy="16" r="12" stroke="url(#paint0_linear_727:46927)" stroke-width="2"/>
<path fill-rule="evenodd" clip-rule="evenodd" d="M21.2785 11.3411L21.6308 9.8031L20.0816 10.1784C19.6988 10.2712 19.6186 10.2872 19.4421 10.2868C19.1967 10.2863 18.8294 10.2481 17.9235 10.1501C16.4732 9.99317 15.3374 10.44 14.5191 11.1074C13.939 11.5805 13.5369 12.1476 13.2774 12.6504L13.2563 12.6423L13.1585 12.8979C13.1175 12.9898 13.0816 13.0784 13.0506 13.1625L12.8709 13.6489L11.6118 16.9365C11.4289 17.4141 11.6359 17.9528 12.0916 18.1851C12.5473 18.4173 13.1048 18.2683 13.3838 17.8396C14.0112 16.8755 14.9621 16.8142 15.2583 16.8669L15.3451 16.8823H15.4333C15.727 16.8823 16.1301 16.9844 16.4403 17.2411C16.7131 17.4668 17.0002 17.8804 17.0002 18.7059C17.0002 19.9978 15.9867 21 14.7916 21C13.9826 21 13.2624 20.5465 12.8751 19.8468C12.6076 19.3637 11.9991 19.1888 11.5159 19.4563C11.0327 19.7237 10.8578 20.3323 11.1253 20.8155C11.8414 22.1091 13.208 23 14.7916 23C17.1406 23 19.0002 21.0525 19.0002 18.7059C19.0002 17.3352 18.4851 16.3371 17.7152 15.7001C17.0129 15.1191 16.1749 14.9005 15.5175 14.8834C15.2506 14.8464 14.9103 14.8421 14.5341 14.898L14.6392 14.6237C14.9022 14.6692 15.198 14.7155 15.5059 14.7539C16.2264 14.8436 17.1401 14.9081 17.8862 14.7557C18.8641 14.556 19.6425 14.1107 20.219 13.4736C20.7848 12.8482 21.106 12.0942 21.2785 11.3411ZM17.6566 12.1273L17.7465 12.137L17.7465 12.137C18.1154 12.177 18.4176 12.2097 18.6725 12.2333C18.4183 12.4884 18.0603 12.6991 17.5258 12.8083C17.1302 12.8891 16.4995 12.8669 15.8051 12.7804C15.7464 12.7731 15.6881 12.7655 15.6305 12.7575C15.6767 12.7135 15.7251 12.6706 15.7757 12.6293C16.1875 12.2935 16.7782 12.0323 17.6566 12.1273Z" fill="url(#paint1_linear_727:46927)"/>
<defs>
<linearGradient id="paint0_linear_727:46927" x1="29" y1="15.0972" x2="3" y2="15.0972" gradientUnits="userSpaceOnUse">
<stop stop-color="#1A78E2"/>
<stop offset="0.483716" stop-color="#0F63D6"/>
<stop offset="1" stop-color="#0049C7"/>
</linearGradient>
<linearGradient id="paint1_linear_727:46927" x1="21.6308" y1="15.9433" x2="11" y2="15.9433" gradientUnits="userSpaceOnUse">
<stop stop-color="#1A78E2"/>
<stop offset="0.483716" stop-color="#0F63D6"/>
<stop offset="1" stop-color="#0049C7"/>
</linearGradient>
</defs>
</svg>
