<svg width="32" height="32" viewBox="0 0 32 32" fill="none" xmlns="http://www.w3.org/2000/svg">
<path fill-rule="evenodd" clip-rule="evenodd" d="M2.75081 27H27.5275C27.9422 27 28.2783 26.6604 28.2783 26.2414C28.2783 25.8224 27.9422 25.4828 27.5275 25.4828H26.7767V23.9655H27.5913C27.9949 23.9655 28.3262 23.6432 28.3416 23.2358L29 5.75862C29 5.33965 28.6639 5 28.2492 5H18.3418C17.241 5 16.2476 5.47966 15.5599 6.24668C15.0137 5.49096 14.1301 5 13.133 5H3.51019C3.10781 5 2.77697 5.32051 2.76004 5.72671L2.04195 22.9562C2.01478 23.0347 2 23.1191 2 23.2069C2 23.6259 2.33615 23.9655 2.75081 23.9655H11.7605V25.4828H2.75081C2.33615 25.4828 2 25.8224 2 26.2414C2 26.6604 2.33615 27 2.75081 27ZM17.7671 23.9655H25.2752V25.4827H17.7671V23.9655ZM16.0643 23.9654H13.4629C13.3564 24.1514 13.2879 24.3624 13.268 24.5875L13.262 24.7241V25.4827H16.2652V24.7241C16.2652 24.4477 16.1921 24.1886 16.0643 23.9654ZM4.23004 6.51724H13.133C13.9623 6.51724 14.6346 7.19653 14.6346 8.03448L14.6264 8.2479C14.6077 8.37938 14.5955 8.5131 14.5904 8.6487L14.4034 13.6119L14.0626 21.7728C13.5779 21.8899 13.1389 22.1258 12.7773 22.4482L3.56616 22.4483L4.23004 6.51724ZM19.153 6.51724H18.3418C17.2348 6.51724 16.3089 7.32564 16.1232 8.39853L15.8997 13.7575L15.5969 21.8079C16.0294 21.9338 16.4218 22.1553 16.7502 22.4482L26.8686 22.4483L27.4692 6.51724H25.9103L25.38 13.4842C25.3482 13.9019 24.9873 14.2145 24.5738 14.1824C24.4315 14.1713 24.2952 14.1195 24.1809 14.0329L22.2719 12.5862L19.7642 14.1065C19.4086 14.322 18.9474 14.2055 18.7341 13.8463C18.654 13.7114 18.6174 13.5546 18.6293 13.3978L19.153 6.51724ZM8.75722 16.3793C8.75722 15.9604 8.42107 15.6207 8.00641 15.6207H5.75398C5.33932 15.6207 5.00317 15.9604 5.00317 16.3793C5.00317 16.7983 5.33932 17.1379 5.75398 17.1379H8.00641C8.42107 17.1379 8.75722 16.7983 8.75722 16.3793ZM10.2588 12.5862C10.6735 12.5862 11.0097 12.9259 11.0097 13.3449C11.0097 13.7638 10.6735 14.1035 10.2588 14.1035H5.75398C5.33932 14.1035 5.00317 13.7638 5.00317 13.3449C5.00317 12.9259 5.33932 12.5862 5.75398 12.5862H10.2588ZM20.6592 6.51724H24.4042L23.9878 11.9899L22.3652 10.7603L20.238 12.0498L20.6592 6.51724Z" fill="url(#paint0_linear_4:3119)"/>
<path fill-rule="evenodd" clip-rule="evenodd" d="M3.50195 23.2069H5.00357V26.2414H3.50195V23.2069Z" fill="url(#paint1_linear_4:3119)"/>
<defs>
<linearGradient id="paint0_linear_4:3119" x1="29" y1="15.2361" x2="2" y2="15.2361" gradientUnits="userSpaceOnUse">
<stop stop-color="#1A78E2"/>
<stop offset="0.483716" stop-color="#0F63D6"/>
<stop offset="1" stop-color="#0049C7"/>
</linearGradient>
<linearGradient id="paint1_linear_4:3119" x1="5.00357" y1="24.6188" x2="3.50195" y2="24.6188" gradientUnits="userSpaceOnUse">
<stop stop-color="#1A78E2"/>
<stop offset="0.483716" stop-color="#0F63D6"/>
<stop offset="1" stop-color="#0049C7"/>
</linearGradient>
</defs>
</svg>
