<svg width="32" height="32" viewBox="0 0 32 32" fill="none" xmlns="http://www.w3.org/2000/svg">
<path d="M24.8214 8.03937H28C28.5523 8.03937 29 8.48708 29 9.03937V25.0039C29 25.5562 28.5523 26.0039 28 26.0039H4C3.44772 26.0039 3 25.5562 3 25.0039V9.03937C3 8.48708 3.44772 8.03937 4 8.03937H7.17857" stroke="url(#paint0_linear_910:56118)" stroke-width="2"/>
<path fill-rule="evenodd" clip-rule="evenodd" d="M24.0994 4.00037C25.2546 3.97803 26 4.95975 26 5.92831V21.9539C26 23.188 24.9335 24.0373 23.8346 24.0096C22.2119 23.9687 20.3979 24.2886 19.0252 24.8997C17.5852 25.5407 17 26.3117 17 27.002H15C15 26.3117 14.4148 25.5406 12.9748 24.8996C11.6021 24.2886 9.78813 23.9687 8.1654 24.0096C7.06652 24.0373 6 23.1879 6 21.9539V6.0453C6 4.97521 6.8952 3.9666 8.11797 4.11505C9.92961 4.33499 11.7067 5.04388 13.1655 5.75978C14.1738 6.25461 15.114 6.79905 15.7879 7.18926C15.9236 7.26787 16.0486 7.34023 16.1611 7.40465C16.1782 7.3927 16.1955 7.38062 16.2129 7.36843L16.3411 7.27893C16.9276 6.86933 17.6404 6.37712 18.4332 5.90424C19.999 4.97029 21.9893 4.04119 24.0994 4.00037ZM17 9.25817V23.7359C17.385 23.4773 17.7978 23.2568 18.2119 23.0725C19.8949 22.3233 22.0108 21.963 23.885 22.0102C23.9245 22.0112 23.9612 21.9958 23.9845 21.9746C23.995 21.9651 23.9988 21.9579 23.9997 21.9561L24 21.9555L24 21.9539V6.00438C22.4605 6.07217 20.8877 6.76896 19.4577 7.6219C18.7313 8.05523 18.0687 8.51185 17.4861 8.9187L17.3204 9.03455C17.2125 9.1101 17.1053 9.18506 17 9.25817ZM14.6772 8.85851C14.7889 8.92331 14.8965 8.98572 15 9.04535L15 23.7359C14.615 23.4773 14.2022 23.2568 13.7881 23.0725C12.1051 22.3233 9.98922 21.9629 8.11499 22.0102C8.07553 22.0112 8.03884 21.9958 8.01548 21.9746C8.005 21.965 8.00116 21.9579 8.00031 21.9561L8.00017 21.9558C8.00002 21.9555 8 21.9555 8 21.9539V6.11634C9.44894 6.31405 10.9451 6.89799 12.2844 7.55523C13.2342 8.02138 14.026 8.48069 14.6772 8.85849L14.6772 8.85851Z" fill="url(#paint1_linear_910:56118)"/>
<defs>
<linearGradient id="paint0_linear_910:56118" x1="29" y1="16.3979" x2="3" y2="16.3979" gradientUnits="userSpaceOnUse">
<stop stop-color="#1A78E2"/>
<stop offset="0.483716" stop-color="#0F63D6"/>
<stop offset="1" stop-color="#0049C7"/>
</linearGradient>
<linearGradient id="paint1_linear_910:56118" x1="26" y1="14.7023" x2="6" y2="14.7023" gradientUnits="userSpaceOnUse">
<stop stop-color="#1A78E2"/>
<stop offset="0.483716" stop-color="#0F63D6"/>
<stop offset="1" stop-color="#0049C7"/>
</linearGradient>
</defs>
</svg>
