<svg width="32" height="32" viewBox="0 0 32 32" fill="none" xmlns="http://www.w3.org/2000/svg">
<path opacity="0.01" fill-rule="evenodd" clip-rule="evenodd" d="M6.37486 10.7926C6.65531 9.39036 7.88656 8.38098 9.3166 8.38098H22.8244C24.7761 8.38098 26.2082 10.2151 25.7348 12.1086L23.4253 21.3467C23.0914 22.6822 21.8915 23.6191 20.5149 23.6191H7.46898C5.57585 23.6191 4.15596 21.8871 4.52724 20.0307L6.37486 10.7926Z" fill="url(#paint0_linear_4:3108)"/>
<circle cx="14.095" cy="25.5238" r="1.14286" fill="white"/>
<circle cx="24.0003" cy="25.5238" r="1.14286" fill="white"/>
<path fill-rule="evenodd" clip-rule="evenodd" d="M8.11852 19.4839C8.11852 21.6322 9.55923 23.4399 11.516 23.9709C11.3006 24.3614 11.1778 24.8113 11.1778 25.2903C11.1778 26.7868 12.3762 28 13.8546 28C15.333 28 16.5315 26.7868 16.5315 25.2903C16.5315 24.8747 16.4391 24.481 16.2739 24.129H21.378C21.2128 24.481 21.1204 24.8747 21.1204 25.2903C21.1204 26.7868 22.3188 28 23.7972 28C25.2756 28 26.4741 26.7868 26.4741 25.2903C26.4741 24.0732 25.6814 23.0436 24.5901 22.7015C24.4715 22.625 24.3307 22.5806 24.1796 22.5806H12.7074C11.0178 22.5806 9.64815 21.1942 9.64815 19.4839L7.3537 4.77419V4H2.76481C2.34242 4 2 4.34662 2 4.77419C2 5.20177 2.34242 5.54839 2.76481 5.54839H5.94483L8.11852 19.4839ZM11.5685 6.32257H26.7055C27.9727 6.32257 29 7.36243 29 8.64515C29 8.80594 28.9835 8.96629 28.9508 9.12363L26.8576 19.1881C26.6341 20.2629 25.6974 21.0322 24.6124 21.0322H13.1383C12.0093 21.0322 11.0481 20.2008 10.872 19.0719L9.30209 9.00739C9.10446 7.74036 9.95893 6.55105 11.2106 6.35099C11.329 6.33207 11.4486 6.32257 11.5685 6.32257ZM22.4587 7.87095L21.2651 12.7039C21.18 13.0485 20.8741 13.2903 20.5231 13.2903H20.3555C20.0257 13.2903 19.7583 13.0197 19.7583 12.6858C19.7583 12.6364 19.7643 12.5872 19.7761 12.5392L20.9291 7.87095H19.3994L18.2059 12.7039C18.1207 13.0485 17.8148 13.2903 17.4639 13.2903H17.2962C16.9664 13.2903 16.6991 13.0197 16.6991 12.6858C16.6991 12.6364 16.705 12.5872 16.7169 12.5392L17.8698 7.87095H11.5684C11.5284 7.87095 11.4886 7.87412 11.4491 7.88043C11.0319 7.94711 10.7471 8.34355 10.8129 8.76589L12.3828 18.8304C12.4415 19.2067 12.7619 19.4839 13.1383 19.4839H24.6123C24.974 19.4839 25.2862 19.2274 25.3607 18.8692L27.4539 8.80464C27.4648 8.75219 27.4703 8.69874 27.4703 8.64515C27.4703 8.21757 27.1279 7.87095 26.7055 7.87095H22.4587ZM23.7974 26.4516C24.431 26.4516 24.9446 25.9317 24.9446 25.2903C24.9446 24.6489 24.431 24.129 23.7974 24.129C23.1638 24.129 22.6501 24.6489 22.6501 25.2903C22.6501 25.9317 23.1638 26.4516 23.7974 26.4516ZM15.002 25.2903C15.002 25.9317 14.4883 26.4516 13.8547 26.4516C13.2211 26.4516 12.7075 25.9317 12.7075 25.2903C12.7075 24.6489 13.2211 24.129 13.8547 24.129C14.4883 24.129 15.002 24.6489 15.002 25.2903Z" fill="url(#paint1_linear_4:3108)"/>
<defs>
<linearGradient id="paint0_linear_4:3108" x1="12.1016" y1="-1.0101" x2="-5.11486" y2="25.5196" gradientUnits="userSpaceOnUse">
<stop offset="0.000237542" stop-color="#FF0000"/>
<stop offset="0.506044" stop-color="#FF144C" stop-opacity="0.143247"/>
<stop offset="1" stop-color="#FF00AC" stop-opacity="0.114265"/>
</linearGradient>
<linearGradient id="paint1_linear_4:3108" x1="29" y1="15.1667" x2="2" y2="15.1667" gradientUnits="userSpaceOnUse">
<stop stop-color="#1A78E2"/>
<stop offset="0.483716" stop-color="#0F63D6"/>
<stop offset="1" stop-color="#0049C7"/>
</linearGradient>
</defs>
</svg>
