<svg width="32" height="32" viewBox="0 0 32 32" fill="none" xmlns="http://www.w3.org/2000/svg">
<path fill-rule="evenodd" clip-rule="evenodd" d="M8.99527 7.58824H26.2404L25.0832 27.4706H7.83813C7.8389 27.4568 7.83929 27.4431 7.83929 27.4293C7.83929 27.0298 7.52162 26.7059 7.12976 26.7059H7.04405C6.67051 26.7059 6.36188 27.0031 6.34057 27.3833C6.33895 27.4124 6.33813 27.4415 6.33813 27.4706C6.33813 28.3153 7.0097 29 7.83813 29H25.0832C25.8784 29 26.5354 28.3673 26.5808 27.5578L27.7345 7.67858C27.7363 7.6485 27.7372 7.61837 27.7372 7.58824C27.7372 6.74356 27.0656 6.05882 26.2372 6.05882H9.08099L9.1667 4.52941H27.25C27.6642 4.52941 28 4.18704 28 3.76471C28 3.34237 27.6642 3 27.25 3H9.1667C8.37152 3 7.71451 3.6327 7.66915 4.44216L7.44997 7.58824C7.4492 7.60198 7.44881 7.61574 7.44881 7.62951C7.44881 8.02905 7.76648 8.35294 8.15834 8.35294H8.20119C8.59879 8.35294 8.92729 8.03659 8.94997 7.63186L8.99527 7.58824ZM6.25 9.11762C5.83579 9.11762 5.5 9.45999 5.5 9.88233C5.5 11.7828 7.01104 13.3235 8.875 13.3235C10.739 13.3235 12.25 11.7828 12.25 9.88233C12.25 9.45999 11.9142 9.11762 11.5 9.11762C11.0858 9.11762 10.75 9.45999 10.75 9.88233C10.75 10.9382 9.91053 11.7941 8.875 11.7941C7.83947 11.7941 7 10.9382 7 9.88233C7 9.45999 6.66421 9.11762 6.25 9.11762ZM4.75 16C4.75 15.5777 5.08579 15.2353 5.5 15.2353C5.91421 15.2353 6.25 15.5777 6.25 16C6.25 17.0559 7.08947 17.9118 8.125 17.9118C9.16053 17.9118 10 17.0559 10 16C10 15.5777 10.3358 15.2353 10.75 15.2353C11.1642 15.2353 11.5 15.5777 11.5 16C11.5 17.9005 9.98896 19.4412 8.125 19.4412C6.26104 19.4412 4.75 17.9005 4.75 16ZM4.75 21.3529C4.33579 21.3529 4 21.6953 4 22.1176C4 24.0181 5.51104 25.5588 7.375 25.5588C9.23896 25.5588 10.75 24.0181 10.75 22.1176C10.75 21.6953 10.4142 21.3529 10 21.3529C9.58579 21.3529 9.25 21.6953 9.25 22.1176C9.25 23.1735 8.41053 24.0294 7.375 24.0294C6.33947 24.0294 5.5 23.1735 5.5 22.1176C5.5 21.6953 5.16421 21.3529 4.75 21.3529ZM17.5 11.4117H22.75C23.1642 11.4117 23.5 11.7541 23.5 12.1764C23.5 12.5988 23.1642 12.9411 22.75 12.9411H17.5C17.0858 12.9411 16.75 12.5988 16.75 12.1764C16.75 11.7541 17.0858 11.4117 17.5 11.4117ZM20.5 14.4706H17.5C17.0858 14.4706 16.75 14.813 16.75 15.2353C16.75 15.6576 17.0858 16 17.5 16H20.5C20.9142 16 21.25 15.6576 21.25 15.2353C21.25 14.813 20.9142 14.4706 20.5 14.4706Z" fill="url(#paint0_linear_4:3114)"/>
<defs>
<linearGradient id="paint0_linear_4:3114" x1="28" y1="15.0972" x2="4" y2="15.0972" gradientUnits="userSpaceOnUse">
<stop stop-color="#1A78E2"/>
<stop offset="0.483716" stop-color="#0F63D6"/>
<stop offset="1" stop-color="#0049C7"/>
</linearGradient>
</defs>
</svg>
