<svg width="32" height="32" viewBox="0 0 32 32" fill="none" xmlns="http://www.w3.org/2000/svg">
<path d="M20 16L19.5789 9.93078C19.5425 9.40662 19.1067 9 18.5813 9H4.92161C4.38917 9 3.9501 9.41719 3.92291 9.94894L3.05374 26.9489C3.02451 27.5205 3.48009 28 4.05243 28H18.4062" stroke="url(#paint0_linear_727:46929)" stroke-width="2"/>
<path d="M15 12.5C15 13.0523 15.4477 13.5 16 13.5C16.5523 13.5 17 13.0523 17 12.5H15ZM7 16C7 16.5523 7.44772 17 8 17C8.55228 17 9 16.5523 9 16H7ZM15 8V12.5H17V8H15ZM9 16V8H7V16H9ZM12 5C13.6569 5 15 6.34315 15 8H17C17 5.23858 14.7614 3 12 3V5ZM12 3C9.23858 3 7 5.23858 7 8H9C9 6.34315 10.3431 5 12 5V3Z" fill="url(#paint1_linear_727:46929)"/>
<path d="M23 19C23 18.4477 23.4477 18 24 18C24.5523 18 25 18.4477 25 19H23ZM17 19C17 18.4477 17.4477 18 18 18C18.5523 18 19 18.4477 19 19H17ZM23 21V19H25V21H23ZM19 19V21H17V19H19ZM21 23C22.1046 23 23 22.1046 23 21H25C25 23.2091 23.2091 25 21 25V23ZM21 25C18.7909 25 17 23.2091 17 21H19C19 22.1046 19.8954 23 21 23V25Z" fill="url(#paint2_linear_727:46929)"/>
<path d="M14.8274 16L27.1726 16L27.9345 28H14.0655L14.8274 16Z" stroke="url(#paint3_linear_727:46929)" stroke-width="2"/>
<defs>
<linearGradient id="paint0_linear_727:46929" x1="20" y1="17.8403" x2="3" y2="17.8403" gradientUnits="userSpaceOnUse">
<stop stop-color="#1A78E2"/>
<stop offset="0.483716" stop-color="#0F63D6"/>
<stop offset="1" stop-color="#0049C7"/>
</linearGradient>
<linearGradient id="paint1_linear_727:46929" x1="16" y1="9.58333" x2="8" y2="9.58333" gradientUnits="userSpaceOnUse">
<stop stop-color="#1A78E2"/>
<stop offset="0.483716" stop-color="#0F63D6"/>
<stop offset="1" stop-color="#0049C7"/>
</linearGradient>
<linearGradient id="paint2_linear_727:46929" x1="24" y1="21.6736" x2="18" y2="21.6736" gradientUnits="userSpaceOnUse">
<stop stop-color="#1A78E2"/>
<stop offset="0.483716" stop-color="#0F63D6"/>
<stop offset="1" stop-color="#0049C7"/>
</linearGradient>
<linearGradient id="paint3_linear_727:46929" x1="29" y1="21.5139" x2="13" y2="21.5139" gradientUnits="userSpaceOnUse">
<stop stop-color="#1A78E2"/>
<stop offset="0.483716" stop-color="#0F63D6"/>
<stop offset="1" stop-color="#0049C7"/>
</linearGradient>
</defs>
</svg>
