<svg width="32" height="32" viewBox="0 0 32 32" fill="none" xmlns="http://www.w3.org/2000/svg">
<path fill-rule="evenodd" clip-rule="evenodd" d="M29 14.9737L28.4534 18.2773C28.3317 19.0132 27.6995 19.5526 26.9588 19.5526H24.3104C24.3104 19.5988 24.3084 19.6449 24.3042 19.6908L24.1261 21.6646C25.6743 22.5006 26.7272 24.1462 26.7272 26.0395C26.7272 28.7791 24.5225 31 21.8028 31C19.2106 31 17.0863 28.9824 16.8928 26.4211L10.6283 26.4211L10.389 28.3496C10.2011 29.8637 8.92335 31 7.40853 31C6.11576 31 5.06776 29.9443 5.06776 28.6421C5.06776 28.5443 5.0738 28.4466 5.08584 28.3496L5.32515 26.4211H4.90094C4.06413 26.4211 3.38575 25.7377 3.38575 24.8947C3.38575 24.8486 3.38783 24.8025 3.39197 24.7566L3.86161 19.5526H3.51519C2.67837 19.5526 2 18.8693 2 18.0263C2 17.9423 2.0069 17.8583 2.02062 17.7754L2.48416 14.9737H29ZM21.8027 22.6052C19.9199 22.6052 18.3936 24.1428 18.3936 26.0395C18.3936 27.9361 19.9199 29.4737 21.8027 29.4737C23.6856 29.4737 25.2119 27.9361 25.2119 26.0395C25.2119 24.1428 23.6856 22.6052 21.8027 22.6052ZM9.10139 26.4211H6.85218L6.58938 28.5389C6.58514 28.5731 6.58301 28.6076 6.58301 28.6421C6.58301 29.1014 6.95263 29.4737 7.40859 29.4737C8.15926 29.4737 8.79246 28.9106 8.88557 28.1603L9.10139 26.4211ZM21.8029 24.1316C22.8489 24.1316 23.6969 24.9857 23.6969 26.0394C23.6969 27.0932 22.8489 27.9473 21.8029 27.9473C20.7569 27.9473 19.9089 27.0932 19.9089 26.0394C19.9089 24.9857 20.7569 24.1316 21.8029 24.1316ZM22.7952 19.5526H5.38298L4.90088 24.8947H17.0102C17.5232 22.707 19.4742 21.0789 21.8028 21.0789C22.092 21.0789 22.3753 21.1041 22.6508 21.1522L22.7952 19.5526ZM27.2116 16.5H3.76791L3.51538 18.0263H26.959L27.2116 16.5ZM8.16599 8.10524C9.63042 8.10524 10.8176 9.30111 10.8176 10.7763C10.8176 12.2515 9.63042 13.4473 8.16599 13.4473C6.70156 13.4473 5.5144 12.2515 5.5144 10.7763C5.5144 9.30111 6.70156 8.10524 8.16599 8.10524ZM14.227 8.10524C15.6915 8.10524 16.8786 9.30111 16.8786 10.7763C16.8786 12.2515 15.6915 13.4473 14.227 13.4473C12.7626 13.4473 11.5754 12.2515 11.5754 10.7763C11.5754 9.30111 12.7626 8.10524 14.227 8.10524ZM20.2878 8.10524C21.7522 8.10524 22.9394 9.30111 22.9394 10.7763C22.9394 12.2515 21.7522 13.4473 20.2878 13.4473C18.8234 13.4473 17.6362 12.2515 17.6362 10.7763C17.6362 9.30111 18.8234 8.10524 20.2878 8.10524ZM8.16618 9.63155C7.53857 9.63155 7.02979 10.1441 7.02979 10.7763C7.02979 11.4085 7.53857 11.921 8.16618 11.921C8.79379 11.921 9.30257 11.4085 9.30257 10.7763C9.30257 10.1441 8.79379 9.63155 8.16618 9.63155ZM14.227 9.63155C13.5994 9.63155 13.0906 10.1441 13.0906 10.7763C13.0906 11.4085 13.5994 11.921 14.227 11.921C14.8546 11.921 15.3634 11.4085 15.3634 10.7763C15.3634 10.1441 14.8546 9.63155 14.227 9.63155ZM20.2875 9.63155C19.6599 9.63155 19.1511 10.1441 19.1511 10.7763C19.1511 11.4085 19.6599 11.921 20.2875 11.921C20.9151 11.921 21.4239 11.4085 21.4239 10.7763C21.4239 10.1441 20.9151 9.63155 20.2875 9.63155ZM11.1964 2C12.6608 2 13.848 3.19587 13.848 4.67105C13.848 6.14623 12.6608 7.34211 11.1964 7.34211C9.73196 7.34211 8.5448 6.14623 8.5448 4.67105C8.5448 3.19587 9.73196 2 11.1964 2ZM17.2574 2C18.7218 2 19.909 3.19587 19.909 4.67105C19.909 6.14623 18.7218 7.34211 17.2574 7.34211C15.7929 7.34211 14.6058 6.14623 14.6058 4.67105C14.6058 3.19587 15.7929 2 17.2574 2ZM11.1965 3.52631C10.5688 3.52631 10.0601 4.03883 10.0601 4.67105C10.0601 5.30327 10.5688 5.81578 11.1965 5.81578C11.8241 5.81578 12.3328 5.30327 12.3328 4.67105C12.3328 4.03883 11.8241 3.52631 11.1965 3.52631ZM17.2572 3.52631C16.6296 3.52631 16.1208 4.03883 16.1208 4.67105C16.1208 5.30327 16.6296 5.81578 17.2572 5.81578C17.8849 5.81578 18.3936 5.30327 18.3936 4.67105C18.3936 4.03883 17.8849 3.52631 17.2572 3.52631Z" fill="url(#paint0_linear_4:3117)"/>
<defs>
<linearGradient id="paint0_linear_4:3117" x1="29" y1="15.4931" x2="2" y2="15.4931" gradientUnits="userSpaceOnUse">
<stop stop-color="#1A78E2"/>
<stop offset="0.483716" stop-color="#0F63D6"/>
<stop offset="1" stop-color="#0049C7"/>
</linearGradient>
</defs>
</svg>
